<?xml version="1.0" encoding="UTF-8" standalone="no"?><svg xmlns="http://www.w3.org/2000/svg" xmlns:xlink="http://www.w3.org/1999/xlink" contentScriptType="application/ecmascript" contentStyleType="text/css" height="692px" preserveAspectRatio="none" style="width:581px;height:692px;" version="1.1" viewBox="0 0 581 692" width="581px" zoomAndPan="magnify"><defs><filter height="300%" id="fag7iajjz28we" width="300%" x="-1" y="-1"><feGaussianBlur result="blurOut" stdDeviation="2.0"/><feColorMatrix in="blurOut" result="blurOut2" type="matrix" values="0 0 0 0 0 0 0 0 0 0 0 0 0 0 0 0 0 0 .4 0"/><feOffset dx="4.0" dy="4.0" in="blurOut2" result="blurOut3"/><feBlend in="SourceGraphic" in2="blurOut3" mode="normal"/></filter></defs><g><!--MD5=[04bb1176c6e37d5385ebe94d1d6eee6c]
cluster Broader Wire-Cell Graph--><polygon fill="#FFFFFF" filter="url(#fag7iajjz28we)" points="85,16,283,16,290,38.2969,416,38.2969,416,87,85,87,85,16" style="stroke: #000000; stroke-width: 1.5;"/><line style="stroke: #000000; stroke-width: 1.5;" x1="85" x2="290" y1="38.2969" y2="38.2969"/><text fill="#000000" font-family="sans-serif" font-size="14" font-weight="bold" lengthAdjust="spacingAndGlyphs" textLength="192" x="89" y="30.9951">Broader Wire-Cell Graph</text><!--MD5=[93c8f2cb31563d90f0a0215077499c23]
cluster Wire-Cell IData--><polygon fill="#FFFFFF" filter="url(#fag7iajjz28we)" points="145,112,266,112,273,134.2969,359,134.2969,359,183,145,183,145,112" style="stroke: #000000; stroke-width: 1.5;"/><line style="stroke: #000000; stroke-width: 1.5;" x1="145" x2="273" y1="134.2969" y2="134.2969"/><text fill="#000000" font-family="sans-serif" font-size="14" font-weight="bold" lengthAdjust="spacingAndGlyphs" textLength="115" x="149" y="126.9951">Wire-Cell IData</text><!--MD5=[cff2cbbef85d7184e2870047eae210ea]
cluster Wire-Cell/ZIO Converts--><polygon fill="#FFFFFF" filter="url(#fag7iajjz28we)" points="14,208,200,208,207,230.2969,470,230.2969,470,279,14,279,14,208" style="stroke: #000000; stroke-width: 1.5;"/><line style="stroke: #000000; stroke-width: 1.5;" x1="14" x2="207" y1="230.2969" y2="230.2969"/><text fill="#000000" font-family="sans-serif" font-size="14" font-weight="bold" lengthAdjust="spacingAndGlyphs" textLength="180" x="18" y="222.9951">Wire-Cell/ZIO Converts</text><!--MD5=[81d10e2aa0a99a6c77363ad8c1f1d509]
cluster ZIO--><path d="M219.9836,314.1229 C221.9419,308.1952 227.591,307.7423 231.3232,312.183 C234.0186,306.7962 238.9844,305.1883 242.9403,310.8588 C247.1473,305.7578 252.5857,305.8308 256.2136,311.5681 C259.2875,304.8583 263.6117,305.5276 268.0876,310.0915 C270.6527,304.0461 275.1512,303.6331 279.7808,307.7054 C283.1284,301.8434 287.4666,301.604 291.4106,307.0943 C295.6064,301.4576 299.8722,302.4207 303.2751,307.9377 C307.382,302.6751 311.2714,301.348 315.6712,307.6231 C320.3992,302.7448 324.4432,303.1396 327.3056,309.5465 C330.6354,304.6714 335.5006,305.7725 337.9129,310.5544 C341.5302,303.964 347.2276,304.173 351.0429,310.3508 C355.0645,305.4179 360.4598,305.6174 363.1274,311.8202 C366.7168,306.7915 371.0048,306.2817 374.0275,312.3756 C377.1715,307.8218 381.9602,306.661 385.187,312.2849 C395.1844,315.1495 394.4855,322.2667 388.9074,328.6683 C398.219,331.3888 398.1121,338.4091 392.8326,344.7017 C398.7806,350.6441 397.4067,356.6867 390.1462,360.3636 C395.1615,366.5093 393.8221,372.5806 385.9849,375.0962 C383.7159,380.1334 378.4393,380.158 375.3919,375.9921 C370.9694,381.6982 366.8666,380.8558 362.7803,375.6052 C359.6365,382.0747 355.1452,384.5061 349.5886,378.0719 C345.9483,384.2404 340.496,383.6397 337.7994,377.1902 C335.0473,382.3107 329.468,382.6317 326.3558,377.5959 C323.9415,383.6694 319.8763,383.9887 315.727,379.3112 C313.1247,385.906 307.2431,386.838 303.3924,380.5018 C299.3851,385.3888 295.718,384.9103 292.4166,379.7322 C287.2028,386.1259 282.8953,386.7533 278.4114,379.0092 C273.6214,384.3612 269.1907,384.2131 266.4567,377.0459 C262.8015,382.6778 259.0065,383.3352 255.1867,377.2036 C252.1928,382.2792 247.5304,382.0761 244.2591,377.5182 C239.7946,382.5326 234.0395,381.1526 232.2638,374.7044 C229.1281,380.8956 224.892,380.7115 220.8189,375.6586 C212.5258,371.5068 212.0081,365.969 219.6328,360.5662 C213.1109,356.5264 211.8588,349.5006 219.3831,345.2321 C211.3628,339.3218 212.686,334.4984 220.4273,329.644 C212.272,324.985 212.6079,319.226 219.9836,314.1229 " fill="#FFFFFF" style="stroke: #000000; stroke-width: 1.5;"/><text fill="#000000" font-family="sans-serif" font-size="14" font-weight="bold" lengthAdjust="spacingAndGlyphs" textLength="27" x="288.5" y="329.9951">ZIO</text><!--MD5=[34b60551099cf4d5b00ffda37222e2e7]
cluster ZIO Brokers, handlers, workers--><path d="M182.4476,417.6663 C191.558,403.9299 200.7632,401.8906 211.8556,415.5377 C218.4792,402.4262 226.1754,404.8573 234.7906,413.4313 C243.2214,403.6944 251.8362,402.7565 258.9045,414.9308 C264.7422,400.8446 277.6778,400.5248 286.661,411.4384 C293.7178,400.2381 301.554,401.8559 308.8142,411.2192 C318.1019,398.1681 328.1944,400.313 335.1494,413.5556 C340.5308,399.6496 351.9353,396.5843 362.1,408.5781 C370.5015,398.2895 381.5049,395.7016 388.6861,409.9028 C396.4611,399.481 406.4469,402.4789 410.6042,413.5859 C419.1973,399.1155 428.3583,400.0972 437.134,413.4116 C444.1938,401.4704 455.2571,402.9564 461.6745,414.0946 C471.9592,401.5717 479.8398,403.5519 487.3785,416.8303 C494.5027,404.21 507.1076,407.0283 513.197,417.9644 C524.5754,404.998 536.5854,404.7112 544,422 C546.0566,421.2589 547.2524,422.6981 546.8167,424.6281 C562.6619,432.6801 565.9642,449.0513 549.8809,459.8787 C565.146,467.433 567.2785,483.1744 551.3578,492.1557 C566.5137,502.9229 569.5468,519.5471 549.2646,528.2597 C564.8978,546.7362 559.7492,559.9968 537,566 C537.3772,565.5503 537.7647,565.4218 538.1133,566.0302 C532.4297,577.4575 520.3801,581.548 512.0415,568.906 C506.7068,579.9164 496.535,578.2686 490.8713,569.2538 C483.7216,581.3023 470.7407,582.48 462.7588,570.2161 C454.646,580.0229 447.2587,580.9646 439.6665,569.6469 C433.033,586.2234 422.1006,585.2724 410.875,574.4771 C402.1726,587.5995 394.2622,585.0151 386.2652,573.7648 C380.919,583.3266 370.0934,583.5301 364.0708,574.5754 C355.2933,586.7303 345.0694,589.5663 336.3586,574.5074 C329.509,586.8544 318.8098,586.4702 312.6303,573.8701 C305.5279,586.5196 293.418,584.5698 288.0914,572.133 C278.3249,583.4082 265.2826,585.5761 258.3142,569.1277 C251.6,579.7251 242.478,578.0728 236.1082,568.7439 C229.727,583.4526 217.7516,582.9036 209.1563,570.9851 C194.8544,582.1567 177.7327,580.7994 175,559 C177.0817,560.0299 177.1755,561.4721 175.2848,562.7997 C159.4269,551.3201 157.6883,539.5452 176.0533,528.84 C157.1723,518.2034 161.603,501.8385 176.9645,492.0501 C161.1871,482.1181 161.6709,468.5882 178.336,460.0465 C157.5146,444.4695 156.8513,426.8378 182,415 C183.4755,415.6532 183.4977,416.5892 182.4476,417.6663 " fill="#FFFFFF" style="stroke: #000000; stroke-width: 1.5;"/><text fill="#000000" font-family="sans-serif" font-size="14" font-weight="bold" lengthAdjust="spacingAndGlyphs" textLength="249" x="235" y="432.9951">ZIO Brokers, handlers, workers</text><!--MD5=[8a76c85c9bda36b8961814e40de163a2]
cluster Resources--><polygon fill="#FFFFFF" filter="url(#fag7iajjz28we)" points="223,599,313,599,320,621.2969,402,621.2969,402,680,223,680,223,599" style="stroke: #000000; stroke-width: 1.5;"/><line style="stroke: #000000; stroke-width: 1.5;" x1="223" x2="320" y1="621.2969" y2="621.2969"/><text fill="#000000" font-family="sans-serif" font-size="14" font-weight="bold" lengthAdjust="spacingAndGlyphs" textLength="84" x="227" y="613.9951">Resources</text><!--MD5=[ed0689d2bf3a834513188873d1ba95a5]
entity prod--><rect fill="#FEFECE" filter="url(#fag7iajjz28we)" height="36.2969" style="stroke: #A80036; stroke-width: 1.5;" width="135" x="272.5" y="43"/><rect fill="#FEFECE" height="5" style="stroke: #A80036; stroke-width: 1.5;" width="10" x="267.5" y="48"/><rect fill="#FEFECE" height="5" style="stroke: #A80036; stroke-width: 1.5;" width="10" x="267.5" y="69.2969"/><text fill="#000000" font-family="sans-serif" font-size="14" lengthAdjust="spacingAndGlyphs" textLength="115" x="282.5" y="65.9951">Some Producers</text><!--MD5=[4e23fbe61dd2bcf2a44d4416d0bd1f40]
entity cons--><rect fill="#FEFECE" filter="url(#fag7iajjz28we)" height="36.2969" style="stroke: #A80036; stroke-width: 1.5;" width="144" x="93" y="43"/><rect fill="#FEFECE" height="5" style="stroke: #A80036; stroke-width: 1.5;" width="10" x="88" y="48"/><rect fill="#FEFECE" height="5" style="stroke: #A80036; stroke-width: 1.5;" width="10" x="88" y="69.2969"/><text fill="#000000" font-family="sans-serif" font-size="14" lengthAdjust="spacingAndGlyphs" textLength="124" x="103" y="65.9951">Some Consumers</text><!--MD5=[4a1dcdb06dea1856eec93a43d473c41d]
entity ITensor1--><rect fill="#FEFECE" filter="url(#fag7iajjz28we)" height="36.2969" rx="35" ry="35" style="stroke: #000000; stroke-width: 1.5;" width="81" x="269.5" y="139"/><text fill="#000000" font-family="sans-serif" font-size="14" lengthAdjust="spacingAndGlyphs" textLength="61" x="279.5" y="161.9951">ITensor1</text><!--MD5=[bb7a0fcd11c093d9c3b8c235be73ce22]
entity ITensor2--><rect fill="#FEFECE" filter="url(#fag7iajjz28we)" height="36.2969" rx="35" ry="35" style="stroke: #000000; stroke-width: 1.5;" width="81" x="153.5" y="139"/><text fill="#000000" font-family="sans-serif" font-size="14" lengthAdjust="spacingAndGlyphs" textLength="61" x="163.5" y="161.9951">ITensor2</text><!--MD5=[e2b57fcdec555762c0b93502972e0bc9]
entity ZioTensorSink--><rect fill="#FEFECE" filter="url(#fag7iajjz28we)" height="36.2969" style="stroke: #A80036; stroke-width: 1.5;" width="120" x="342" y="235"/><rect fill="#FEFECE" height="5" style="stroke: #A80036; stroke-width: 1.5;" width="10" x="337" y="240"/><rect fill="#FEFECE" height="5" style="stroke: #A80036; stroke-width: 1.5;" width="10" x="337" y="261.2969"/><text fill="#000000" font-family="sans-serif" font-size="14" lengthAdjust="spacingAndGlyphs" textLength="100" x="352" y="257.9951">ZioTensorSink</text><!--MD5=[c5925c295acf59f7fc7520d6941697d5]
entity ZioTensorSource--><rect fill="#FEFECE" filter="url(#fag7iajjz28we)" height="36.2969" style="stroke: #A80036; stroke-width: 1.5;" width="140" x="22" y="235"/><rect fill="#FEFECE" height="5" style="stroke: #A80036; stroke-width: 1.5;" width="10" x="17" y="240"/><rect fill="#FEFECE" height="5" style="stroke: #A80036; stroke-width: 1.5;" width="10" x="17" y="261.2969"/><text fill="#000000" font-family="sans-serif" font-size="14" lengthAdjust="spacingAndGlyphs" textLength="120" x="32" y="257.9951">ZioTensorSource</text><!--MD5=[ec4564cd547d81d874cfb0cae2b60102]
entity ZioGpuClient--><rect fill="#FEFECE" filter="url(#fag7iajjz28we)" height="36.2969" style="stroke: #A80036; stroke-width: 1.5;" width="110" x="197" y="235"/><rect fill="#FEFECE" height="5" style="stroke: #A80036; stroke-width: 1.5;" width="10" x="192" y="240"/><rect fill="#FEFECE" height="5" style="stroke: #A80036; stroke-width: 1.5;" width="10" x="192" y="261.2969"/><text fill="#000000" font-family="sans-serif" font-size="14" lengthAdjust="spacingAndGlyphs" textLength="90" x="207" y="257.9951">ZioGpuClient</text><!--MD5=[301774e9455a9ca2ed6e8aa8093c2e54]
entity flow--><path d="M324.5,331 L379.5,331 C384.5,331 384.5,352.2969 384.5,352.2969 C384.5,352.2969 384.5,373.5938 379.5,373.5938 L324.5,373.5938 C319.5,373.5938 319.5,352.2969 319.5,352.2969 C319.5,352.2969 319.5,331 324.5,331 " fill="#FEFECE" filter="url(#fag7iajjz28we)" style="stroke: #A80036; stroke-width: 1.5;"/><path d="M379.5,331 C374.5,331 374.5,352.2969 374.5,352.2969 C374.5,373.5938 379.5,373.5938 379.5,373.5938 " fill="none" style="stroke: #A80036; stroke-width: 1.5;"/><text fill="#000000" font-family="sans-serif" font-size="14" lengthAdjust="spacingAndGlyphs" textLength="27" x="324.5" y="348.9951">flow</text><text fill="#000000" font-family="sans-serif" font-size="14" lengthAdjust="spacingAndGlyphs" textLength="45" x="324.5" y="365.292">queue</text><!--MD5=[64a9df9efdb85e10fd4da2b3e755ab03]
entity work--><path d="M224.5,331 L279.5,331 C284.5,331 284.5,352.2969 284.5,352.2969 C284.5,352.2969 284.5,373.5938 279.5,373.5938 L224.5,373.5938 C219.5,373.5938 219.5,352.2969 219.5,352.2969 C219.5,352.2969 219.5,331 224.5,331 " fill="#FEFECE" filter="url(#fag7iajjz28we)" style="stroke: #A80036; stroke-width: 1.5;"/><path d="M279.5,331 C274.5,331 274.5,352.2969 274.5,352.2969 C274.5,373.5938 279.5,373.5938 279.5,373.5938 " fill="none" style="stroke: #A80036; stroke-width: 1.5;"/><text fill="#000000" font-family="sans-serif" font-size="14" lengthAdjust="spacingAndGlyphs" textLength="33" x="224.5" y="348.9951">work</text><text fill="#000000" font-family="sans-serif" font-size="14" lengthAdjust="spacingAndGlyphs" textLength="45" x="224.5" y="365.292">queue</text><!--MD5=[f8e831895ba939ad66d5f33c970c5b7d]
entity flowb--><rect fill="#FEFECE" filter="url(#fag7iajjz28we)" height="36.2969" style="stroke: #A80036; stroke-width: 1.5;" width="101" x="322.5" y="434"/><rect fill="#FEFECE" height="5" style="stroke: #A80036; stroke-width: 1.5;" width="10" x="317.5" y="439"/><rect fill="#FEFECE" height="5" style="stroke: #A80036; stroke-width: 1.5;" width="10" x="317.5" y="460.2969"/><text fill="#000000" font-family="sans-serif" font-size="14" lengthAdjust="spacingAndGlyphs" textLength="81" x="332.5" y="456.9951">Flow Broker</text><!--MD5=[a278c0d9fdacfe18ea7446394f9ef105]
entity domob--><rect fill="#FEFECE" filter="url(#fag7iajjz28we)" height="36.2969" style="stroke: #A80036; stroke-width: 1.5;" width="112" x="175" y="434"/><rect fill="#FEFECE" height="5" style="stroke: #A80036; stroke-width: 1.5;" width="10" x="170" y="439"/><rect fill="#FEFECE" height="5" style="stroke: #A80036; stroke-width: 1.5;" width="10" x="170" y="460.2969"/><text fill="#000000" font-family="sans-serif" font-size="14" lengthAdjust="spacingAndGlyphs" textLength="92" x="185" y="456.9951">Domo Broker</text><!--MD5=[87a740c85ac59a3a2f18937cb30a27b1]
entity hdfr--><rect fill="#FEFECE" filter="url(#fag7iajjz28we)" height="36.2969" style="stroke: #A80036; stroke-width: 1.5;" width="103" x="313.5" y="530"/><rect fill="#FEFECE" height="5" style="stroke: #A80036; stroke-width: 1.5;" width="10" x="308.5" y="535"/><rect fill="#FEFECE" height="5" style="stroke: #A80036; stroke-width: 1.5;" width="10" x="308.5" y="556.2969"/><text fill="#000000" font-family="sans-serif" font-size="14" lengthAdjust="spacingAndGlyphs" textLength="83" x="323.5" y="552.9951">HDF Reader</text><!--MD5=[7bc4ac42e58bb602d3e0a7a50bb118b9]
entity hdfw--><rect fill="#FEFECE" filter="url(#fag7iajjz28we)" height="36.2969" style="stroke: #A80036; stroke-width: 1.5;" width="93" x="451.5" y="530"/><rect fill="#FEFECE" height="5" style="stroke: #A80036; stroke-width: 1.5;" width="10" x="446.5" y="535"/><rect fill="#FEFECE" height="5" style="stroke: #A80036; stroke-width: 1.5;" width="10" x="446.5" y="556.2969"/><text fill="#000000" font-family="sans-serif" font-size="14" lengthAdjust="spacingAndGlyphs" textLength="73" x="461.5" y="552.9951">HDF Writer</text><!--MD5=[fa1e70a384d644f5ac5d5d97abe13e37]
entity gpuw--><rect fill="#FEFECE" filter="url(#fag7iajjz28we)" height="36.2969" style="stroke: #A80036; stroke-width: 1.5;" width="103" x="175.5" y="530"/><rect fill="#FEFECE" height="5" style="stroke: #A80036; stroke-width: 1.5;" width="10" x="170.5" y="535"/><rect fill="#FEFECE" height="5" style="stroke: #A80036; stroke-width: 1.5;" width="10" x="170.5" y="556.2969"/><text fill="#000000" font-family="sans-serif" font-size="14" lengthAdjust="spacingAndGlyphs" textLength="83" x="185.5" y="552.9951">GPU Worker</text><!--MD5=[83bfea492c0c483377340ac67e914b41]
entity hdf--><path d="M336,636.5 C336,626.5 365,626.5 365,626.5 C365,626.5 394,626.5 394,636.5 L394,661.7969 C394,671.7969 365,671.7969 365,671.7969 C365,671.7969 336,671.7969 336,661.7969 L336,636.5 " fill="#FEFECE" filter="url(#fag7iajjz28we)" style="stroke: #000000; stroke-width: 1.5;"/><path d="M336,636.5 C336,646.5 365,646.5 365,646.5 C365,646.5 394,646.5 394,636.5 " fill="none" style="stroke: #000000; stroke-width: 1.5;"/><text fill="#000000" font-family="sans-serif" font-size="14" lengthAdjust="spacingAndGlyphs" textLength="38" x="346" y="663.4951">HDF5</text><!--MD5=[ab6cc78aeaa82ab42a1cfb89503913b6]
entity GPU--><rect fill="#FEFECE" filter="url(#fag7iajjz28we)" height="46.2969" style="stroke: #000000; stroke-width: 1.5;" width="70" x="231" y="626"/><path d="M254.3333,627 L254.3333,631 L247.3333,638 L231,638 " fill="none" style="stroke: #000000; stroke-width: 1.5;"/><text fill="#000000" font-family="sans-serif" font-size="14" lengthAdjust="spacingAndGlyphs" textLength="30" x="246" y="658.9951">GPU</text><!--MD5=[9830dbe6da4635ad9420c0a5153b80c2]
link flow to flowb--><path d="M357.6526,379.2825 C360.8972,394.6558 364.933,413.7777 368.0516,428.554 " fill="none" id="flow-flowb" style="stroke: #A80036; stroke-width: 1.0;"/><polygon fill="#A80036" points="369.1559,433.7863,371.2111,424.1543,368.1233,428.8941,363.3835,425.8063,369.1559,433.7863" style="stroke: #A80036; stroke-width: 1.0;"/><polygon fill="#A80036" points="356.5567,374.09,354.5018,383.7221,357.5894,378.9822,362.3293,382.0698,356.5567,374.09" style="stroke: #A80036; stroke-width: 1.0;"/><!--MD5=[2bf161eddf741586381b550b095b3424]
link flowb to hdfw--><path d="M396.5115,470.0569 C417.417,486.1122 448.0121,509.6093 470.1399,526.6035 " fill="none" id="flowb-&gt;hdfw" style="stroke: #A80036; stroke-width: 1.0;"/><polygon fill="#A80036" points="474.1689,529.6977,469.4674,521.0435,470.2034,526.6522,464.5946,527.3882,474.1689,529.6977" style="stroke: #A80036; stroke-width: 1.0;"/><!--MD5=[186dd86f11f9463ebf962af57592d4b4]
reverse link flowb to hdfr--><path d="M371.0782,475.0611 C369.6825,491.8106 367.8192,514.1694 366.5252,529.6977 " fill="none" id="flowb&lt;-hdfr" style="stroke: #A80036; stroke-width: 1.0;"/><polygon fill="#A80036" points="371.4953,470.0569,366.7614,478.6934,371.0799,475.0396,374.7337,479.3581,371.4953,470.0569" style="stroke: #A80036; stroke-width: 1.0;"/><!--MD5=[d4f1f7a5a2733bf6242b87cfd21568f9]
link work to domob--><path d="M246.3474,379.2825 C243.1028,394.6558 239.067,413.7777 235.9484,428.554 " fill="none" id="work-domob" style="stroke: #A80036; stroke-width: 1.0;"/><polygon fill="#A80036" points="234.8441,433.7863,240.6165,425.8063,235.8767,428.8941,232.7889,424.1543,234.8441,433.7863" style="stroke: #A80036; stroke-width: 1.0;"/><polygon fill="#A80036" points="247.4433,374.09,241.6707,382.0698,246.4106,378.9822,249.4982,383.7221,247.4433,374.09" style="stroke: #A80036; stroke-width: 1.0;"/><!--MD5=[f6f85d90ea2d2df625a56113f39e0f13]
link domob to gpuw--><path d="M230.0391,475.0611 C229.4176,489.9786 228.6106,509.3455 227.9844,524.3736 " fill="none" id="domob-gpuw" style="stroke: #A80036; stroke-width: 1.0;"/><polygon fill="#A80036" points="227.7626,529.6977,232.1338,520.872,227.9707,524.702,224.1407,520.539,227.7626,529.6977" style="stroke: #A80036; stroke-width: 1.0;"/><polygon fill="#A80036" points="230.2476,470.0569,225.8762,478.8825,230.0393,475.0526,233.8692,479.2157,230.2476,470.0569" style="stroke: #A80036; stroke-width: 1.0;"/><!--MD5=[ddbae21449a47d71b09ca48cb9743919]
link prod to ITensor1--><path d="M334.3572,79.0569 C329.5273,94.5126 322.5423,116.8647 317.2897,133.6731 " fill="none" id="prod-&gt;ITensor1" style="stroke: #A80036; stroke-width: 1.0;"/><polygon fill="#A80036" points="315.7195,138.6977,322.222,131.3005,317.2109,133.9253,314.5861,128.9143,315.7195,138.6977" style="stroke: #A80036; stroke-width: 1.0;"/><!--MD5=[d317bd2f66d4495dbce7fdf0e381c877]
link prod to ITensor2--><path d="M306.3432,79.1023 C289.6714,88.4195 269.4308,100.2647 252,112 C241.1769,119.2867 229.7347,127.9419 219.8994,135.7058 " fill="none" id="prod-&gt;ITensor2" style="stroke: #A80036; stroke-width: 1.0;"/><polygon fill="#A80036" points="215.7891,138.9721,225.3238,136.5045,219.7036,135.8614,220.3467,130.2412,215.7891,138.9721" style="stroke: #A80036; stroke-width: 1.0;"/><!--MD5=[fcc27739947d0ed3a8ce6767e080e2a4]
reverse link cons to ITensor1--><path d="M202.9787,81.839 C218.4622,90.6991 236.3638,101.4163 252,112 C264.3486,120.3583 277.5247,130.4761 288.1925,138.9993 " fill="none" id="cons&lt;-ITensor1" style="stroke: #A80036; stroke-width: 1.0;"/><polygon fill="#A80036" points="198.2563,79.1511,204.0996,87.0793,202.6018,81.6243,208.0567,80.1265,198.2563,79.1511" style="stroke: #A80036; stroke-width: 1.0;"/><!--MD5=[80179ef74a65811dbdfbeb3801ce06f0]
reverse link cons to ITensor2--><path d="M171.9664,84.0611 C177.0261,100.8106 183.7804,123.1694 188.4712,138.6977 " fill="none" id="cons&lt;-ITensor2" style="stroke: #A80036; stroke-width: 1.0;"/><polygon fill="#A80036" points="170.4547,79.0569,169.2281,88.8291,171.9005,83.8433,176.8863,86.5157,170.4547,79.0569" style="stroke: #A80036; stroke-width: 1.0;"/><!--MD5=[8377b4cbd8b5e11799ea603709f6cc4d]
link ITensor1 to ZioTensorSink--><path d="M327.3045,175.0569 C342.4993,190.9124 364.6494,214.0255 380.8839,230.9658 " fill="none" id="ITensor1-&gt;ZioTensorSink" style="stroke: #A80036; stroke-width: 1.0;"/><polygon fill="#A80036" points="384.4603,234.6977,381.1209,225.4322,381.0007,231.0878,375.3451,230.9676,384.4603,234.6977" style="stroke: #A80036; stroke-width: 1.0;"/><!--MD5=[5fdc94cbacb8d19437efcfc83d205242]
reverse link ITensor2 to ZioTensorSource--><path d="M170.8661,178.7731 C152.9349,195.6495 128.3717,218.7678 111.4462,234.6977 " fill="none" id="ITensor2&lt;-ZioTensorSource" style="stroke: #A80036; stroke-width: 1.0;"/><polygon fill="#A80036" points="174.8146,175.0569,165.5194,178.3124,171.1736,178.4837,171.0023,184.138,174.8146,175.0569" style="stroke: #A80036; stroke-width: 1.0;"/><!--MD5=[392777053d84650b896b10968e881499]
link ZioTensorSink to flow--><path d="M392.8292,271.2498 C385.0983,286.6344 373.9366,308.8461 365.2367,326.1589 " fill="none" id="ZioTensorSink-&gt;flow" style="stroke: #A80036; stroke-width: 1.0;"/><polygon fill="#A80036" points="362.8531,330.9023,370.4684,324.6567,365.0982,326.4347,363.3202,321.0645,362.8531,330.9023" style="stroke: #A80036; stroke-width: 1.0;"/><!--MD5=[4be87e3b4958fc80d8665d06a78a140e]
reverse link ZioTensorSource to flow--><path d="M155.5853,272.4827 C163.772,274.7858 172.0643,277.0184 180,279 C233.7001,292.4092 253.0638,278.1398 302,304 C314.403,310.5544 325.8319,321.127 334.6229,330.7305 " fill="none" id="ZioTensorSource&lt;-flow" style="stroke: #A80036; stroke-width: 1.0;"/><polygon fill="#A80036" points="150.5057,271.0411,158.0717,277.3463,155.3157,272.4062,160.2559,269.6503,150.5057,271.0411" style="stroke: #A80036; stroke-width: 1.0;"/><!--MD5=[14d8bb8fbda5d638005ffe7c780397b1]
link ZioGpuClient to work--><path d="M252,276.6148 C252,291.4125 252,310.5182 252,325.8567 " fill="none" id="ZioGpuClient-work" style="stroke: #A80036; stroke-width: 1.0;"/><polygon fill="#A80036" points="252,330.9023,256,321.9023,252,325.9023,248,321.9023,252,330.9023" style="stroke: #A80036; stroke-width: 1.0;"/><polygon fill="#A80036" points="252,271.2498,248,280.2498,252,276.2498,256,280.2498,252,271.2498" style="stroke: #A80036; stroke-width: 1.0;"/><!--MD5=[da24448d13f620d3e6ce70280fe6f57b]
link ITensor2 to ZioGpuClient--><path d="M204.9094,175.0569 C214.3277,190.6459 227.9847,213.2506 238.1685,230.1065 " fill="none" id="ITensor2-&gt;ZioGpuClient" style="stroke: #A80036; stroke-width: 1.0;"/><polygon fill="#A80036" points="240.9424,234.6977,239.7118,224.926,238.3567,230.4182,232.8646,229.0631,240.9424,234.6977" style="stroke: #A80036; stroke-width: 1.0;"/><!--MD5=[fb803c6e98702d14b2ce13dd01f74059]
link ZioGpuClient to ITensor1--><path d="M263.0576,234.6977 C272.5202,219.0356 286.181,196.4246 296.3282,179.6292 " fill="none" id="ZioGpuClient-&gt;ITensor1" style="stroke: #A80036; stroke-width: 1.0;"/><polygon fill="#A80036" points="299.0906,175.0569,291.0129,180.6917,296.505,179.3365,297.8602,184.8286,299.0906,175.0569" style="stroke: #A80036; stroke-width: 1.0;"/><!--MD5=[89f4778413fe22d8f3af5e3d20ba2b82]
reverse link hdfr to hdf--><path d="M365,571.4151 C365,587.8787 365,609.7968 365,626.1368 " fill="none" id="hdfr&lt;-hdf" style="stroke: #A80036; stroke-width: 1.0;"/><polygon fill="#A80036" points="365,566.0568,361,575.0568,365,571.0568,369,575.0568,365,566.0568" style="stroke: #A80036; stroke-width: 1.0;"/><!--MD5=[22d5c3b3670aef62c0a9862a97886798]
link hdfw to hdf--><path d="M474.2223,566.0568 C453.0328,582.1481 421.8075,605.8605 398.1649,623.8146 " fill="none" id="hdfw-&gt;hdf" style="stroke: #A80036; stroke-width: 1.0;"/><polygon fill="#A80036" points="394.1412,626.8702,403.7279,624.6129,398.1232,623.8463,398.8897,618.2417,394.1412,626.8702" style="stroke: #A80036; stroke-width: 1.0;"/><!--MD5=[0048df217e08107b0980aa0a736ed42c]
link gpuw to GPU--><path d="M235.8627,570.9522 C241.5985,585.8064 249.1036,605.2427 255.1893,621.0032 " fill="none" id="gpuw-GPU" style="stroke: #A80036; stroke-width: 1.0;"/><polygon fill="#A80036" points="257.0289,625.7672,257.5184,615.9305,255.2278,621.1029,250.0554,618.8123,257.0289,625.7672" style="stroke: #A80036; stroke-width: 1.0;"/><polygon fill="#A80036" points="233.9724,566.0568,233.4829,575.8935,235.7735,570.7211,240.9459,573.0117,233.9724,566.0568" style="stroke: #A80036; stroke-width: 1.0;"/><!--MD5=[92fa4128aa6cadb2cd1f68b0297cb635]
@startuml
package "Broader Wire-Cell Graph" {
        [Some Producers] as prod
        [Some Consumers] as cons
}


package "Wire-Cell IData" {
        storage ITensor1
        storage ITensor2
}
package "Wire-Cell/ZIO Converts" {
        [ZioTensorSink]
        [ZioTensorSource]
        [ZioGpuClient]
}
cloud "ZIO" {
        queue "flow\nqueue" as flow
        queue "work\nqueue" as work
}
cloud "ZIO Brokers, handlers, workers" {
        [Flow Broker] as flowb
        [Domo Broker] as domob
        [HDF Reader] as hdfr
        [HDF Writer] as hdfw
        [GPU Worker] as gpuw

        flow <- -> flowb
        flowb - -> hdfw
        flowb <- - hdfr

        work <- -> domob
        domob <- -> gpuw
} 
package "Resources" {
        database HDF5 as hdf
        frame GPU
}        
prod - -> ITensor1
prod - -> ITensor2
cons <- - ITensor1
cons <- - ITensor2

ITensor1 - -> [ZioTensorSink]
ITensor2 <- - [ZioTensorSource]
[ZioTensorSink] - -> flow
[ZioTensorSource] <- - flow
[ZioGpuClient] <- -> work
ITensor2 - -> [ZioGpuClient]
[ZioGpuClient] - -> ITensor1
hdfr <- - hdf
hdfw - -> hdf
gpuw <- -> GPU
@enduml

PlantUML version 1.2020.01(Sun Feb 16 12:40:32 EST 2020)
(GPL source distribution)
Java Runtime: OpenJDK Runtime Environment
JVM: OpenJDK 64-Bit Server VM
Java Version: 1.8.0_242-8u242-b08-0ubuntu3~18.04-b08
Operating System: Linux
Default Encoding: UTF-8
Language: en
Country: US
--></g></svg>