<?xml version="1.0" encoding="UTF-8" standalone="no"?><svg xmlns="http://www.w3.org/2000/svg" xmlns:xlink="http://www.w3.org/1999/xlink" contentScriptType="application/ecmascript" contentStyleType="text/css" height="692px" preserveAspectRatio="none" style="width:501px;height:692px;" version="1.1" viewBox="0 0 501 692" width="501px" zoomAndPan="magnify"><defs><filter height="300%" id="fbajjaw5ex2j5" width="300%" x="-1" y="-1"><feGaussianBlur result="blurOut" stdDeviation="2.0"/><feColorMatrix in="blurOut" result="blurOut2" type="matrix" values="0 0 0 0 0 0 0 0 0 0 0 0 0 0 0 0 0 0 .4 0"/><feOffset dx="4.0" dy="4.0" in="blurOut2" result="blurOut3"/><feBlend in="SourceGraphic" in2="blurOut3" mode="normal"/></filter></defs><g><!--MD5=[04bb1176c6e37d5385ebe94d1d6eee6c]
cluster Broader Wire-Cell Graph--><polygon fill="#FFFFFF" filter="url(#fbajjaw5ex2j5)" points="148,16,346,16,353,38.2969,479,38.2969,479,87,148,87,148,16" style="stroke: #000000; stroke-width: 1.5;"/><line style="stroke: #000000; stroke-width: 1.5;" x1="148" x2="353" y1="38.2969" y2="38.2969"/><text fill="#000000" font-family="sans-serif" font-size="14" font-weight="bold" lengthAdjust="spacingAndGlyphs" textLength="192" x="152" y="30.9951">Broader Wire-Cell Graph</text><!--MD5=[93c8f2cb31563d90f0a0215077499c23]
cluster Wire-Cell IData--><polygon fill="#FFFFFF" filter="url(#fbajjaw5ex2j5)" points="172,112,293,112,300,134.2969,303,134.2969,303,183,172,183,172,112" style="stroke: #000000; stroke-width: 1.5;"/><line style="stroke: #000000; stroke-width: 1.5;" x1="172" x2="300" y1="134.2969" y2="134.2969"/><text fill="#000000" font-family="sans-serif" font-size="14" font-weight="bold" lengthAdjust="spacingAndGlyphs" textLength="115" x="176" y="126.9951">Wire-Cell IData</text><!--MD5=[cff2cbbef85d7184e2870047eae210ea]
cluster Wire-Cell/ZIO Converts--><polygon fill="#FFFFFF" filter="url(#fbajjaw5ex2j5)" points="14,208,200,208,207,230.2969,470,230.2969,470,279,14,279,14,208" style="stroke: #000000; stroke-width: 1.5;"/><line style="stroke: #000000; stroke-width: 1.5;" x1="14" x2="207" y1="230.2969" y2="230.2969"/><text fill="#000000" font-family="sans-serif" font-size="14" font-weight="bold" lengthAdjust="spacingAndGlyphs" textLength="180" x="18" y="222.9951">Wire-Cell/ZIO Converts</text><!--MD5=[3cfd019f9dce256b27b25da04f8d98ab]
cluster ZIO Message Transfer\n--><path d="M28.2865,298.586 C32.7249,291.0822 40.9178,288.9699 46.2452,297.5962 C52.5995,288.4092 61.3867,285.5114 68.1226,297.1962 C72.5776,288.0055 81.8967,287.4227 87.8125,295.5337 C94.5696,287.1003 101.4998,286.7589 107.4319,296.4278 C112.5641,286.3197 119.9745,285.9426 127.5297,293.7024 C133.4379,284.3036 142.4614,284.786 147.2913,294.8 C153.4261,285.968 159.623,283.9948 166.8092,293.6926 C172.1975,285.3891 181.9459,282.8826 187.2494,293.7828 C193.4634,284.9031 201.6952,284.1145 207.4351,294.2852 C212.3798,285.9145 222.1466,284.8666 227.5696,293.7264 C235.5528,285.0888 240.9403,287.3606 245.8368,296.8389 C252.3312,286.9841 259.6752,285.7175 268.1492,294.4644 C273.7876,284.6892 282.7236,285.8106 286.8676,295.8744 C294.8512,285.8607 301.4799,287.7089 307.7341,297.6801 C317.2241,300.8238 322.2696,309.9739 312.8961,317.9269 C321.58,321.224 322.3607,329.0173 316.2336,335.1795 C326.6946,342.9818 326.058,354.0468 312.5581,357.9879 C317.8293,365.2382 318.1902,371.8146 307.7129,374.4219 C302.3742,383.9654 296.3685,386.3587 287.5805,378.3865 C281.5608,388.0628 273.1678,389.2126 267.2226,378.3128 C261.9133,385.6805 252.527,386.41 248.3382,377.0481 C242.5522,387.5068 234.275,389.891 225.8507,379.9574 C218.6711,389.8792 212.1216,388.8812 205.6636,379.2138 C198.9463,387.9569 192.7242,388.6504 185.8355,379.4027 C180.7391,389.5263 174.892,389.0061 167.7337,381.5224 C160.9095,392.7034 152.5341,392.7708 146.3757,380.9054 C140.6083,389.7716 135.163,390.7738 128.2075,382.1389 C120.5534,391.6447 112.2911,388.3141 108.5763,378.1978 C103.3521,388.633 92.186,387.9572 86.2403,379.0301 C80.3624,389.2289 71.9947,387.9978 66.3096,378.8317 C59.0518,388.2714 49.8734,387.4655 46.1656,375.492 C40.4436,386.6772 32.5284,387.2024 25.0895,377.1998 C14.6681,373.6608 12.6828,363.9119 20.2708,356.2337 C10.9023,353.2009 9.5558,344.1515 16.9577,338.0611 C9.4223,330.9356 10.7249,323.8756 19.5678,318.9919 C12.8343,308.0783 15.9867,301.3673 28.2865,298.586 " fill="#FFFFFF" style="stroke: #000000; stroke-width: 1.5;"/><text fill="#000000" font-family="sans-serif" font-size="14" font-weight="bold" lengthAdjust="spacingAndGlyphs" textLength="175" x="77.5" y="313.9951">ZIO Message Transfer</text><text fill="#000000" font-family="sans-serif" font-size="14" font-weight="bold" lengthAdjust="spacingAndGlyphs" textLength="0" x="167.5" y="330.292"/><!--MD5=[34b60551099cf4d5b00ffda37222e2e7]
cluster ZIO Brokers, handlers, workers--><polygon fill="#FFFFFF" filter="url(#fbajjaw5ex2j5)" points="16,407,271,407,278,429.2969,401,429.2969,401,574,16,574,16,407" style="stroke: #000000; stroke-width: 1.5;"/><line style="stroke: #000000; stroke-width: 1.5;" x1="16" x2="278" y1="429.2969" y2="429.2969"/><text fill="#000000" font-family="sans-serif" font-size="14" font-weight="bold" lengthAdjust="spacingAndGlyphs" textLength="249" x="20" y="421.9951">ZIO Brokers, handlers, workers</text><!--MD5=[8a76c85c9bda36b8961814e40de163a2]
cluster Resources--><polygon fill="#FFFFFF" filter="url(#fbajjaw5ex2j5)" points="72,599,162,599,169,621.2969,251,621.2969,251,680,72,680,72,599" style="stroke: #000000; stroke-width: 1.5;"/><line style="stroke: #000000; stroke-width: 1.5;" x1="72" x2="169" y1="621.2969" y2="621.2969"/><text fill="#000000" font-family="sans-serif" font-size="14" font-weight="bold" lengthAdjust="spacingAndGlyphs" textLength="84" x="76" y="613.9951">Resources</text><!--MD5=[ed0689d2bf3a834513188873d1ba95a5]
entity prod--><rect fill="#FEFECE" filter="url(#fbajjaw5ex2j5)" height="36.2969" style="stroke: #A80036; stroke-width: 1.5;" width="135" x="335.5" y="43"/><rect fill="#FEFECE" height="5" style="stroke: #A80036; stroke-width: 1.5;" width="10" x="330.5" y="48"/><rect fill="#FEFECE" height="5" style="stroke: #A80036; stroke-width: 1.5;" width="10" x="330.5" y="69.2969"/><text fill="#000000" font-family="sans-serif" font-size="14" lengthAdjust="spacingAndGlyphs" textLength="115" x="345.5" y="65.9951">Some Producers</text><!--MD5=[4e23fbe61dd2bcf2a44d4416d0bd1f40]
entity cons--><rect fill="#FEFECE" filter="url(#fbajjaw5ex2j5)" height="36.2969" style="stroke: #A80036; stroke-width: 1.5;" width="144" x="156" y="43"/><rect fill="#FEFECE" height="5" style="stroke: #A80036; stroke-width: 1.5;" width="10" x="151" y="48"/><rect fill="#FEFECE" height="5" style="stroke: #A80036; stroke-width: 1.5;" width="10" x="151" y="69.2969"/><text fill="#000000" font-family="sans-serif" font-size="14" lengthAdjust="spacingAndGlyphs" textLength="124" x="166" y="65.9951">Some Consumers</text><!--MD5=[bee92720e8e9ddfb932deeff72ff4529]
entity tensors--><rect fill="#FEFECE" filter="url(#fbajjaw5ex2j5)" height="36.2969" rx="35" ry="35" style="stroke: #000000; stroke-width: 1.5;" width="95" x="189.5" y="139"/><text fill="#000000" font-family="sans-serif" font-size="14" lengthAdjust="spacingAndGlyphs" textLength="75" x="199.5" y="161.9951">ITensorSet</text><!--MD5=[e2b57fcdec555762c0b93502972e0bc9]
entity ZioTensorSink--><rect fill="#FEFECE" filter="url(#fbajjaw5ex2j5)" height="36.2969" style="stroke: #A80036; stroke-width: 1.5;" width="120" x="342" y="235"/><rect fill="#FEFECE" height="5" style="stroke: #A80036; stroke-width: 1.5;" width="10" x="337" y="240"/><rect fill="#FEFECE" height="5" style="stroke: #A80036; stroke-width: 1.5;" width="10" x="337" y="261.2969"/><text fill="#000000" font-family="sans-serif" font-size="14" lengthAdjust="spacingAndGlyphs" textLength="100" x="352" y="257.9951">ZioTensorSink</text><!--MD5=[c5925c295acf59f7fc7520d6941697d5]
entity ZioTensorSource--><rect fill="#FEFECE" filter="url(#fbajjaw5ex2j5)" height="36.2969" style="stroke: #A80036; stroke-width: 1.5;" width="140" x="167" y="235"/><rect fill="#FEFECE" height="5" style="stroke: #A80036; stroke-width: 1.5;" width="10" x="162" y="240"/><rect fill="#FEFECE" height="5" style="stroke: #A80036; stroke-width: 1.5;" width="10" x="162" y="261.2969"/><text fill="#000000" font-family="sans-serif" font-size="14" lengthAdjust="spacingAndGlyphs" textLength="120" x="177" y="257.9951">ZioTensorSource</text><!--MD5=[ec4564cd547d81d874cfb0cae2b60102]
entity ZioGpuClient--><rect fill="#FEFECE" filter="url(#fbajjaw5ex2j5)" height="36.2969" style="stroke: #A80036; stroke-width: 1.5;" width="110" x="22" y="235"/><rect fill="#FEFECE" height="5" style="stroke: #A80036; stroke-width: 1.5;" width="10" x="17" y="240"/><rect fill="#FEFECE" height="5" style="stroke: #A80036; stroke-width: 1.5;" width="10" x="17" y="261.2969"/><text fill="#000000" font-family="sans-serif" font-size="14" lengthAdjust="spacingAndGlyphs" textLength="90" x="32" y="257.9951">ZioGpuClient</text><!--MD5=[301774e9455a9ca2ed6e8aa8093c2e54]
entity flow--><path d="M174.5,331 L299.5,331 C304.5,331 304.5,352.2969 304.5,352.2969 C304.5,352.2969 304.5,373.5938 299.5,373.5938 L174.5,373.5938 C169.5,373.5938 169.5,352.2969 169.5,352.2969 C169.5,352.2969 169.5,331 174.5,331 " fill="#FEFECE" filter="url(#fbajjaw5ex2j5)" style="stroke: #A80036; stroke-width: 1.5;"/><path d="M299.5,331 C294.5,331 294.5,352.2969 294.5,352.2969 C294.5,373.5938 299.5,373.5938 299.5,373.5938 " fill="none" style="stroke: #A80036; stroke-width: 1.5;"/><text fill="#000000" font-family="sans-serif" font-size="14" lengthAdjust="spacingAndGlyphs" textLength="76" x="174.5" y="348.9951">flow queue</text><text fill="#000000" font-family="sans-serif" font-size="14" lengthAdjust="spacingAndGlyphs" textLength="115" x="174.5" y="365.292">FLOW/TENS msg</text><!--MD5=[64a9df9efdb85e10fd4da2b3e755ab03]
entity work--><path d="M30.5,331 L129.5,331 C134.5,331 134.5,352.2969 134.5,352.2969 C134.5,352.2969 134.5,373.5938 129.5,373.5938 L30.5,373.5938 C25.5,373.5938 25.5,352.2969 25.5,352.2969 C25.5,352.2969 25.5,331 30.5,331 " fill="#FEFECE" filter="url(#fbajjaw5ex2j5)" style="stroke: #A80036; stroke-width: 1.5;"/><path d="M129.5,331 C124.5,331 124.5,352.2969 124.5,352.2969 C124.5,373.5938 129.5,373.5938 129.5,373.5938 " fill="none" style="stroke: #A80036; stroke-width: 1.5;"/><text fill="#000000" font-family="sans-serif" font-size="14" lengthAdjust="spacingAndGlyphs" textLength="89" x="30.5" y="348.9951">domo queue</text><text fill="#000000" font-family="sans-serif" font-size="14" lengthAdjust="spacingAndGlyphs" textLength="71" x="30.5" y="365.292">TENS msg</text><!--MD5=[f8e831895ba939ad66d5f33c970c5b7d]
entity flowb--><rect fill="#FEFECE" filter="url(#fbajjaw5ex2j5)" height="36.2969" style="stroke: #A80036; stroke-width: 1.5;" width="101" x="186.5" y="434"/><rect fill="#FEFECE" height="5" style="stroke: #A80036; stroke-width: 1.5;" width="10" x="181.5" y="439"/><rect fill="#FEFECE" height="5" style="stroke: #A80036; stroke-width: 1.5;" width="10" x="181.5" y="460.2969"/><text fill="#000000" font-family="sans-serif" font-size="14" lengthAdjust="spacingAndGlyphs" textLength="81" x="196.5" y="456.9951">Flow Broker</text><!--MD5=[a278c0d9fdacfe18ea7446394f9ef105]
entity domob--><rect fill="#FEFECE" filter="url(#fbajjaw5ex2j5)" height="36.2969" style="stroke: #A80036; stroke-width: 1.5;" width="112" x="24" y="434"/><rect fill="#FEFECE" height="5" style="stroke: #A80036; stroke-width: 1.5;" width="10" x="19" y="439"/><rect fill="#FEFECE" height="5" style="stroke: #A80036; stroke-width: 1.5;" width="10" x="19" y="460.2969"/><text fill="#000000" font-family="sans-serif" font-size="14" lengthAdjust="spacingAndGlyphs" textLength="92" x="34" y="456.9951">Domo Broker</text><!--MD5=[87a740c85ac59a3a2f18937cb30a27b1]
entity hdfr--><rect fill="#FEFECE" filter="url(#fbajjaw5ex2j5)" height="36.2969" style="stroke: #A80036; stroke-width: 1.5;" width="103" x="162.5" y="530"/><rect fill="#FEFECE" height="5" style="stroke: #A80036; stroke-width: 1.5;" width="10" x="157.5" y="535"/><rect fill="#FEFECE" height="5" style="stroke: #A80036; stroke-width: 1.5;" width="10" x="157.5" y="556.2969"/><text fill="#000000" font-family="sans-serif" font-size="14" lengthAdjust="spacingAndGlyphs" textLength="83" x="172.5" y="552.9951">HDF Reader</text><!--MD5=[7bc4ac42e58bb602d3e0a7a50bb118b9]
entity hdfw--><rect fill="#FEFECE" filter="url(#fbajjaw5ex2j5)" height="36.2969" style="stroke: #A80036; stroke-width: 1.5;" width="93" x="300.5" y="530"/><rect fill="#FEFECE" height="5" style="stroke: #A80036; stroke-width: 1.5;" width="10" x="295.5" y="535"/><rect fill="#FEFECE" height="5" style="stroke: #A80036; stroke-width: 1.5;" width="10" x="295.5" y="556.2969"/><text fill="#000000" font-family="sans-serif" font-size="14" lengthAdjust="spacingAndGlyphs" textLength="73" x="310.5" y="552.9951">HDF Writer</text><!--MD5=[fa1e70a384d644f5ac5d5d97abe13e37]
entity gpuw--><rect fill="#FEFECE" filter="url(#fbajjaw5ex2j5)" height="36.2969" style="stroke: #A80036; stroke-width: 1.5;" width="103" x="24.5" y="530"/><rect fill="#FEFECE" height="5" style="stroke: #A80036; stroke-width: 1.5;" width="10" x="19.5" y="535"/><rect fill="#FEFECE" height="5" style="stroke: #A80036; stroke-width: 1.5;" width="10" x="19.5" y="556.2969"/><text fill="#000000" font-family="sans-serif" font-size="14" lengthAdjust="spacingAndGlyphs" textLength="83" x="34.5" y="552.9951">GPU Worker</text><!--MD5=[83bfea492c0c483377340ac67e914b41]
entity hdf--><path d="M185,636.5 C185,626.5 214,626.5 214,626.5 C214,626.5 243,626.5 243,636.5 L243,661.7969 C243,671.7969 214,671.7969 214,671.7969 C214,671.7969 185,671.7969 185,661.7969 L185,636.5 " fill="#FEFECE" filter="url(#fbajjaw5ex2j5)" style="stroke: #000000; stroke-width: 1.5;"/><path d="M185,636.5 C185,646.5 214,646.5 214,646.5 C214,646.5 243,646.5 243,636.5 " fill="none" style="stroke: #000000; stroke-width: 1.5;"/><text fill="#000000" font-family="sans-serif" font-size="14" lengthAdjust="spacingAndGlyphs" textLength="38" x="195" y="663.4951">HDF5</text><!--MD5=[ab6cc78aeaa82ab42a1cfb89503913b6]
entity GPU--><rect fill="#FEFECE" filter="url(#fbajjaw5ex2j5)" height="46.2969" style="stroke: #000000; stroke-width: 1.5;" width="70" x="80" y="626"/><path d="M103.3333,627 L103.3333,631 L96.3333,638 L80,638 " fill="none" style="stroke: #000000; stroke-width: 1.5;"/><text fill="#000000" font-family="sans-serif" font-size="14" lengthAdjust="spacingAndGlyphs" textLength="30" x="95" y="658.9951">GPU</text><!--MD5=[9830dbe6da4635ad9420c0a5153b80c2]
link flow to flowb--><path d="M237,379.2825 C237,394.6558 237,413.7777 237,428.554 " fill="none" id="flow-flowb" style="stroke: #A80036; stroke-width: 1.0;"/><polygon fill="#A80036" points="237,433.7863,241,424.7863,237,428.7863,233,424.7863,237,433.7863" style="stroke: #A80036; stroke-width: 1.0;"/><polygon fill="#A80036" points="237,374.09,233,383.09,237,379.09,241,383.09,237,374.09" style="stroke: #A80036; stroke-width: 1.0;"/><!--MD5=[2bf161eddf741586381b550b095b3424]
link flowb to hdfw--><path d="M257.6902,470.0569 C276.0106,486.0456 302.7874,509.4144 322.2403,526.3916 " fill="none" id="flowb-&gt;hdfw" style="stroke: #A80036; stroke-width: 1.0;"/><polygon fill="#A80036" points="326.0286,529.6977,321.878,520.7662,322.2615,526.41,316.6177,526.7936,326.0286,529.6977" style="stroke: #A80036; stroke-width: 1.0;"/><!--MD5=[186dd86f11f9463ebf962af57592d4b4]
reverse link flowb to hdfr--><path d="M231.4749,475.0611 C227.462,491.8106 222.1052,514.1694 218.3849,529.6977 " fill="none" id="flowb&lt;-hdfr" style="stroke: #A80036; stroke-width: 1.0;"/><polygon fill="#A80036" points="232.6739,470.0569,226.687,477.8772,231.5089,474.9193,234.4668,479.7412,232.6739,470.0569" style="stroke: #A80036; stroke-width: 1.0;"/><!--MD5=[d4f1f7a5a2733bf6242b87cfd21568f9]
link work to domob--><path d="M80,379.2825 C80,394.6558 80,413.7777 80,428.554 " fill="none" id="work-domob" style="stroke: #A80036; stroke-width: 1.0;"/><polygon fill="#A80036" points="80,433.7863,84,424.7863,80,428.7863,76,424.7863,80,433.7863" style="stroke: #A80036; stroke-width: 1.0;"/><polygon fill="#A80036" points="80,374.09,76,383.09,80,379.09,84,383.09,80,374.09" style="stroke: #A80036; stroke-width: 1.0;"/><!--MD5=[f6f85d90ea2d2df625a56113f39e0f13]
link domob to gpuw--><path d="M79.0391,475.0611 C78.4176,489.9786 77.6106,509.3455 76.9844,524.3736 " fill="none" id="domob-gpuw" style="stroke: #A80036; stroke-width: 1.0;"/><polygon fill="#A80036" points="76.7626,529.6977,81.1338,520.872,76.9707,524.702,73.1407,520.539,76.7626,529.6977" style="stroke: #A80036; stroke-width: 1.0;"/><polygon fill="#A80036" points="79.2476,470.0569,74.8762,478.8825,79.0393,475.0526,82.8692,479.2157,79.2476,470.0569" style="stroke: #A80036; stroke-width: 1.0;"/><!--MD5=[1d31ce0967dc55442e263514fc9ee065]
link prod to tensors--><path d="M371.7767,79.0569 C343.6947,95.297 302.4469,119.1512 272.988,136.1877 " fill="none" id="prod-&gt;tensors" style="stroke: #A80036; stroke-width: 1.0;"/><polygon fill="#A80036" points="268.3651,138.8612,278.1586,137.8182,272.6934,136.358,274.1535,130.8929,268.3651,138.8612" style="stroke: #A80036; stroke-width: 1.0;"/><!--MD5=[9b9884789c480941ec0c29e00b243ac2]
reverse link cons to tensors--><path d="M230.162,84.0611 C231.7322,100.8106 233.8284,123.1694 235.2842,138.6977 " fill="none" id="cons&lt;-tensors" style="stroke: #A80036; stroke-width: 1.0;"/><polygon fill="#A80036" points="229.6928,79.0569,226.5504,88.391,230.1595,84.0351,234.5154,87.6442,229.6928,79.0569" style="stroke: #A80036; stroke-width: 1.0;"/><!--MD5=[96994f881cda7baa4e3b9381da1060d3]
link tensors to ZioTensorSink--><path d="M268.3766,175.1472 C285.1801,184.8751 306.2282,197.0752 325,208 C338.5861,215.9068 353.5064,224.6196 366.5658,232.2555 " fill="none" id="tensors-&gt;ZioTensorSink" style="stroke: #A80036; stroke-width: 1.0;"/><polygon fill="#A80036" points="370.9188,234.8011,365.1689,226.8049,366.6026,232.2771,361.1305,233.7108,370.9188,234.8011" style="stroke: #A80036; stroke-width: 1.0;"/><!--MD5=[2fe458a5b21f114f301d65625434e5d7]
reverse link tensors to ZioTensorSource--><path d="M237,180.0611 C237,196.8106 237,219.1694 237,234.6977 " fill="none" id="tensors&lt;-ZioTensorSource" style="stroke: #A80036; stroke-width: 1.0;"/><polygon fill="#A80036" points="237,175.0569,233,184.0569,237,180.0569,241,184.0569,237,175.0569" style="stroke: #A80036; stroke-width: 1.0;"/><!--MD5=[392777053d84650b896b10968e881499]
link ZioTensorSink to flow--><path d="M372.1197,271.0187 C345.586,287.0194 306.5888,310.5358 277.3012,328.1972 " fill="none" id="ZioTensorSink-&gt;flow" style="stroke: #A80036; stroke-width: 1.0;"/><polygon fill="#A80036" points="272.6874,330.9794,282.4601,329.7572,276.9691,328.3974,278.3289,322.9064,272.6874,330.9794" style="stroke: #A80036; stroke-width: 1.0;"/><!--MD5=[4be87e3b4958fc80d8665d06a78a140e]
reverse link ZioTensorSource to flow--><path d="M237,276.6148 C237,293.0853 237,314.8928 237,330.9023 " fill="none" id="ZioTensorSource&lt;-flow" style="stroke: #A80036; stroke-width: 1.0;"/><polygon fill="#A80036" points="237,271.2498,233,280.2498,237,276.2498,241,280.2498,237,271.2498" style="stroke: #A80036; stroke-width: 1.0;"/><!--MD5=[14d8bb8fbda5d638005ffe7c780397b1]
link ZioGpuClient to work--><path d="M77.712,276.6148 C78.1582,291.4125 78.7342,310.5182 79.1967,325.8567 " fill="none" id="ZioGpuClient-work" style="stroke: #A80036; stroke-width: 1.0;"/><polygon fill="#A80036" points="79.3488,330.9023,83.0754,321.7857,79.1979,325.9046,75.0791,322.0271,79.3488,330.9023" style="stroke: #A80036; stroke-width: 1.0;"/><polygon fill="#A80036" points="77.5502,271.2498,73.8233,280.3663,77.7009,276.2475,81.8197,280.1251,77.5502,271.2498" style="stroke: #A80036; stroke-width: 1.0;"/><!--MD5=[d659b016d1f7c783bc8350d6ce018b31]
link tensors to ZioGpuClient--><path d="M201.5198,177.5597 C185.7025,186.7868 166.87,197.8574 150,208 C137.0451,215.7888 122.8835,224.4778 110.5102,232.1277 " fill="none" id="tensors-ZioGpuClient" style="stroke: #A80036; stroke-width: 1.0;"/><polygon fill="#A80036" points="106.038,234.8955,115.796,233.5604,110.2896,232.2642,111.5859,226.7579,106.038,234.8955" style="stroke: #A80036; stroke-width: 1.0;"/><polygon fill="#A80036" points="205.8971,175.0084,196.1072,176.0846,201.5773,177.5262,200.1357,182.9963,205.8971,175.0084" style="stroke: #A80036; stroke-width: 1.0;"/><!--MD5=[89f4778413fe22d8f3af5e3d20ba2b82]
reverse link hdfr to hdf--><path d="M214,571.4151 C214,587.8787 214,609.7968 214,626.1368 " fill="none" id="hdfr&lt;-hdf" style="stroke: #A80036; stroke-width: 1.0;"/><polygon fill="#A80036" points="214,566.0568,210,575.0568,214,571.0568,218,575.0568,214,566.0568" style="stroke: #A80036; stroke-width: 1.0;"/><!--MD5=[22d5c3b3670aef62c0a9862a97886798]
link hdfw to hdf--><path d="M323.2223,566.0568 C302.0328,582.1481 270.8075,605.8605 247.1649,623.8146 " fill="none" id="hdfw-&gt;hdf" style="stroke: #A80036; stroke-width: 1.0;"/><polygon fill="#A80036" points="243.1412,626.8702,252.7279,624.6129,247.1232,623.8463,247.8897,618.2417,243.1412,626.8702" style="stroke: #A80036; stroke-width: 1.0;"/><!--MD5=[0048df217e08107b0980aa0a736ed42c]
link gpuw to GPU--><path d="M84.8627,570.9522 C90.5985,585.8064 98.1036,605.2427 104.1893,621.0032 " fill="none" id="gpuw-GPU" style="stroke: #A80036; stroke-width: 1.0;"/><polygon fill="#A80036" points="106.0289,625.7672,106.5184,615.9305,104.2278,621.1029,99.0554,618.8123,106.0289,625.7672" style="stroke: #A80036; stroke-width: 1.0;"/><polygon fill="#A80036" points="82.9724,566.0568,82.4829,575.8935,84.7735,570.7211,89.9459,573.0117,82.9724,566.0568" style="stroke: #A80036; stroke-width: 1.0;"/><!--MD5=[bcb661ad0bc7ea952c021ebbc248f449]
@startuml
package "Broader Wire-Cell Graph" {
        [Some Producers] as prod
        [Some Consumers] as cons
}


package "Wire-Cell IData" {
        storage "ITensorSet" as tensors
}
package "Wire-Cell/ZIO Converts" {
        [ZioTensorSink]
        [ZioTensorSource]
        [ZioGpuClient]
}
cloud "ZIO Message Transfer\n" {
        queue "flow queue\nFLOW/TENS msg" as flow
        queue "domo queue\nTENS msg" as work
}
package "ZIO Brokers, handlers, workers" {
        [Flow Broker] as flowb
        [Domo Broker] as domob
        [HDF Reader] as hdfr
        [HDF Writer] as hdfw
        [GPU Worker] as gpuw

        flow <- -> flowb
        flowb - -> hdfw
        flowb <- - hdfr

        work <- -> domob
        domob <- -> gpuw
} 
package "Resources" {
        database HDF5 as hdf
        frame GPU
}        
prod - -> tensors
cons <- - tensors

tensors - -> [ZioTensorSink]
tensors <- - [ZioTensorSource]
[ZioTensorSink] - -> flow
[ZioTensorSource] <- - flow
[ZioGpuClient] <- -> work
tensors <- -> [ZioGpuClient]
hdfr <- - hdf
hdfw - -> hdf
gpuw <- -> GPU
@enduml

PlantUML version 1.2020.01(Sun Feb 16 12:40:32 EST 2020)
(GPL source distribution)
Java Runtime: OpenJDK Runtime Environment
JVM: OpenJDK 64-Bit Server VM
Java Version: 1.8.0_242-8u242-b08-0ubuntu3~18.04-b08
Operating System: Linux
Default Encoding: UTF-8
Language: en
Country: US
--></g></svg>