<?xml version="1.0" encoding="UTF-8" standalone="no"?><svg xmlns="http://www.w3.org/2000/svg" xmlns:xlink="http://www.w3.org/1999/xlink" contentScriptType="application/ecmascript" contentStyleType="text/css" height="1474px" preserveAspectRatio="none" style="width:1240px;height:1474px;" version="1.1" viewBox="0 0 1240 1474" width="1240px" zoomAndPan="magnify"><defs><filter height="300%" id="fcjqgkpv43h1c" width="300%" x="-1" y="-1"><feGaussianBlur result="blurOut" stdDeviation="2.0"/><feColorMatrix in="blurOut" result="blurOut2" type="matrix" values="0 0 0 0 0 0 0 0 0 0 0 0 0 0 0 0 0 0 .4 0"/><feOffset dx="4.0" dy="4.0" in="blurOut2" result="blurOut3"/><feBlend in="SourceGraphic" in2="blurOut3" mode="normal"/></filter></defs><g><ellipse cx="613" cy="18" fill="#000000" filter="url(#fcjqgkpv43h1c)" rx="10" ry="10" style="stroke: none; stroke-width: 1.0;"/><rect fill="#FEFECE" filter="url(#fcjqgkpv43h1c)" height="50" rx="12.5" ry="12.5" style="stroke: #A80036; stroke-width: 1.5;" width="60" x="583" y="89"/><line style="stroke: #A80036; stroke-width: 1.5;" x1="583" x2="643" y1="115.2969" y2="115.2969"/><text fill="#000000" font-family="sans-serif" font-size="14" lengthAdjust="spacingAndGlyphs" textLength="40" x="593" y="106.9951">CTOR</text><rect fill="#FEFECE" filter="url(#fcjqgkpv43h1c)" height="50" rx="12.5" ry="12.5" style="stroke: #A80036; stroke-width: 1.5;" width="50" x="588" y="200"/><line style="stroke: #A80036; stroke-width: 1.5;" x1="588" x2="638" y1="226.2969" y2="226.2969"/><text fill="#000000" font-family="sans-serif" font-size="14" lengthAdjust="spacingAndGlyphs" textLength="30" x="598" y="217.9951">IDLE</text><rect fill="#FEFECE" filter="url(#fcjqgkpv43h1c)" height="50" rx="12.5" ry="12.5" style="stroke: #A80036; stroke-width: 1.5;" width="89" x="424.5" y="327"/><line style="stroke: #A80036; stroke-width: 1.5;" x1="424.5" x2="513.5" y1="353.2969" y2="353.2969"/><text fill="#000000" font-family="sans-serif" font-size="14" lengthAdjust="spacingAndGlyphs" textLength="69" x="434.5" y="344.9951">BOTSEND</text><rect fill="#FEFECE" filter="url(#fcjqgkpv43h1c)" height="50" rx="12.5" ry="12.5" style="stroke: #A80036; stroke-width: 1.5;" width="88" x="715" y="327"/><line style="stroke: #A80036; stroke-width: 1.5;" x1="715" x2="803" y1="353.2969" y2="353.2969"/><text fill="#000000" font-family="sans-serif" font-size="14" lengthAdjust="spacingAndGlyphs" textLength="68" x="725" y="344.9951">BOTRECV</text><rect fill="#FEFECE" filter="url(#fcjqgkpv43h1c)" height="50" rx="12.5" ry="12.5" style="stroke: #A80036; stroke-width: 1.5;" width="69" x="456.5" y="1286"/><line style="stroke: #A80036; stroke-width: 1.5;" x1="456.5" x2="525.5" y1="1312.2969" y2="1312.2969"/><text fill="#000000" font-family="sans-serif" font-size="14" lengthAdjust="spacingAndGlyphs" textLength="49" x="466.5" y="1303.9951">ACKFIN</text><rect fill="#FEFECE" filter="url(#fcjqgkpv43h1c)" height="50" rx="12.5" ry="12.5" style="stroke: #A80036; stroke-width: 1.5;" width="69" x="710.5" y="1286"/><line style="stroke: #A80036; stroke-width: 1.5;" x1="710.5" x2="779.5" y1="1312.2969" y2="1312.2969"/><text fill="#000000" font-family="sans-serif" font-size="14" lengthAdjust="spacingAndGlyphs" textLength="49" x="720.5" y="1303.9951">FINACK</text><rect fill="#FEFECE" filter="url(#fcjqgkpv43h1c)" height="50" rx="12.5" ry="12.5" style="stroke: #A80036; stroke-width: 1.5;" width="50" x="593" y="1413"/><line style="stroke: #A80036; stroke-width: 1.5;" x1="593" x2="643" y1="1439.2969" y2="1439.2969"/><text fill="#000000" font-family="sans-serif" font-size="14" lengthAdjust="spacingAndGlyphs" textLength="21" x="607.5" y="1430.9951">FIN</text><rect fill="#FEFECE" filter="url(#fcjqgkpv43h1c)" height="755.2969" rx="12.5" ry="12.5" style="stroke: #A80036; stroke-width: 1.5;" width="1222" x="6" y="454"/><rect fill="#FFFFFF" height="723" rx="12.5" ry="12.5" style="stroke: #FFFFFF; stroke-width: 1.0;" width="1216" x="9" y="483.2969"/><line style="stroke: #A80036; stroke-width: 1.5;" x1="6" x2="1228" y1="480.2969" y2="480.2969"/><text fill="#000000" font-family="sans-serif" font-size="14" lengthAdjust="spacingAndGlyphs" textLength="103" x="565.5" y="471.9951">flowsm_flowing</text><ellipse cx="559.5" cy="503.2969" fill="#000000" filter="url(#fcjqgkpv43h1c)" rx="10" ry="10" style="stroke: none; stroke-width: 1.0;"/><rect fill="#FEFECE" filter="url(#fcjqgkpv43h1c)" height="50" rx="12.5" ry="12.5" style="stroke: #A80036; stroke-width: 1.5;" width="83" x="518" y="550.2969"/><line style="stroke: #A80036; stroke-width: 1.5;" x1="518" x2="601" y1="576.5938" y2="576.5938"/><text fill="#000000" font-family="sans-serif" font-size="14" lengthAdjust="spacingAndGlyphs" textLength="63" x="528" y="568.292">FLOWING</text><rect fill="#FEFECE" filter="url(#fcjqgkpv43h1c)" height="50" rx="12.5" ry="12.5" style="stroke: #A80036; stroke-width: 1.5;" width="68" x="525.5" y="637.2969"/><line style="stroke: #A80036; stroke-width: 1.5;" x1="525.5" x2="593.5" y1="663.5938" y2="663.5938"/><text fill="#000000" font-family="sans-serif" font-size="14" lengthAdjust="spacingAndGlyphs" textLength="48" x="535.5" y="655.292">READY</text><rect fill="#FEFECE" filter="url(#fcjqgkpv43h1c)" height="351.2969" rx="12.5" ry="12.5" style="stroke: #A80036; stroke-width: 1.5;" width="487" x="17" y="791.7969"/><rect fill="#FFFFFF" height="319" rx="12.5" ry="12.5" style="stroke: #FFFFFF; stroke-width: 1.0;" width="481" x="20" y="821.0938"/><line style="stroke: #A80036; stroke-width: 1.5;" x1="17" x2="504" y1="818.0938" y2="818.0938"/><text fill="#000000" font-family="sans-serif" font-size="14" lengthAdjust="spacingAndGlyphs" textLength="97" x="212" y="809.792">flowsm_taking</text><ellipse cx="155.3631" cy="841.0938" fill="#000000" filter="url(#fcjqgkpv43h1c)" rx="10" ry="10" style="stroke: none; stroke-width: 1.0;"/><rect fill="#FEFECE" filter="url(#fcjqgkpv43h1c)" height="50" rx="12.5" ry="12.5" style="stroke: #A80036; stroke-width: 1.5;" width="71" x="119.8631" y="888.0938"/><line style="stroke: #A80036; stroke-width: 1.5;" x1="119.8631" x2="190.8631" y1="914.3906" y2="914.3906"/><text fill="#000000" font-family="sans-serif" font-size="14" lengthAdjust="spacingAndGlyphs" textLength="51" x="129.8631" y="906.0889">TAKING</text><rect fill="#FEFECE" filter="url(#fcjqgkpv43h1c)" height="50" rx="12.5" ry="12.5" style="stroke: #A80036; stroke-width: 1.5;" width="122" x="94.3631" y="975.0938"/><line style="stroke: #A80036; stroke-width: 1.5;" x1="94.3631" x2="216.3631" y1="1001.3906" y2="1001.3906"/><text fill="#000000" font-family="sans-serif" font-size="14" lengthAdjust="spacingAndGlyphs" textLength="102" x="104.3631" y="993.0889">WALLETCHECK</text><rect fill="#FEFECE" filter="url(#fcjqgkpv43h1c)" height="50" rx="12.5" ry="12.5" style="stroke: #A80036; stroke-width: 1.5;" width="99" x="105.8631" y="1078.0938"/><line style="stroke: #A80036; stroke-width: 1.5;" x1="105.8631" x2="204.8631" y1="1104.3906" y2="1104.3906"/><text fill="#000000" font-family="sans-serif" font-size="14" lengthAdjust="spacingAndGlyphs" textLength="79" x="115.8631" y="1096.0889">HANDSOUT</text><!--MD5=[b8a4f2977ac2f82f9515355450f2f4c3]
link *start*flowsm_taking to TAKING--><path d="M155.3631,851.1051 C155.3631,859.3481 155.3631,871.4835 155.3631,882.8367 " fill="none" id="*start*flowsm_taking-&gt;TAKING" style="stroke: #A80036; stroke-width: 1.0;"/><polygon fill="#A80036" points="155.3631,887.9812,159.3631,878.9812,155.3631,882.9812,151.3631,878.9812,155.3631,887.9812" style="stroke: #A80036; stroke-width: 1.0;"/><!--MD5=[48be2400c47c49ea365377ed29abb351]
link TAKING to WALLETCHECK--><path d="M155.3631,938.2578 C155.3631,948.0869 155.3631,959.4448 155.3631,969.7234 " fill="none" id="TAKING-&gt;WALLETCHECK" style="stroke: #A80036; stroke-width: 1.0;"/><polygon fill="#A80036" points="155.3631,974.9863,159.3631,965.9863,155.3631,969.9863,151.3631,965.9863,155.3631,974.9863" style="stroke: #A80036; stroke-width: 1.0;"/><!--MD5=[19c0a42eaad3eee2918d2c7464312f70]
link WALLETCHECK to HANDSOUT--><path d="M94.2379,1014.5835 C67.7619,1022.2135 41.0507,1032.2331 33.3631,1043.0938 C12.7241,1072.2517 59.1301,1087.9044 100.5206,1095.8292 " fill="none" id="WALLETCHECK-&gt;HANDSOUT" style="stroke: #A80036; stroke-width: 1.0;"/><polygon fill="#A80036" points="105.5385,1096.7577,97.4167,1091.1867,100.622,1095.8478,95.9609,1099.0531,105.5385,1096.7577" style="stroke: #A80036; stroke-width: 1.0;"/><text fill="#000000" font-family="sans-serif" font-size="13" lengthAdjust="spacingAndGlyphs" textLength="221" x="34.3631" y="1056.1606">FlushPay [have_credit] / flush_msg</text><!--MD5=[17f73eacdc77bea7ac94125295dc8430]
link HANDSOUT to WALLETCHECK--><path d="M205.0604,1092.9491 C238.104,1083.7359 272.6725,1067.7634 256.3631,1043.0938 C248.0063,1030.4533 235.0974,1021.5168 221.2702,1015.2027 " fill="none" id="HANDSOUT-&gt;WALLETCHECK" style="stroke: #A80036; stroke-width: 1.0;"/><polygon fill="#A80036" points="216.5511,1013.1605,223.2219,1020.4061,221.1398,1015.1464,226.3995,1013.0643,216.5511,1013.1605" style="stroke: #A80036; stroke-width: 1.0;"/><text fill="#000000" font-family="sans-serif" font-size="13" lengthAdjust="spacingAndGlyphs" textLength="209" x="261.3631" y="1056.1606">RecvMsg [check_dat] / recv_msg</text><rect fill="#FEFECE" filter="url(#fcjqgkpv43h1c)" height="454.2969" rx="12.5" ry="12.5" style="stroke: #A80036; stroke-width: 1.5;" width="672" x="522.5" y="740.2969"/><rect fill="#FFFFFF" height="422" rx="12.5" ry="12.5" style="stroke: #FFFFFF; stroke-width: 1.0;" width="666" x="525.5" y="769.5938"/><line style="stroke: #A80036; stroke-width: 1.5;" x1="522.5" x2="1194.5" y1="766.5938" y2="766.5938"/><text fill="#000000" font-family="sans-serif" font-size="14" lengthAdjust="spacingAndGlyphs" textLength="95" x="811" y="758.292">flowsm_giving</text><ellipse cx="800.0186" cy="789.5938" fill="#000000" filter="url(#fcjqgkpv43h1c)" rx="10" ry="10" style="stroke: none; stroke-width: 1.0;"/><rect fill="#FEFECE" filter="url(#fcjqgkpv43h1c)" height="50" rx="12.5" ry="12.5" style="stroke: #A80036; stroke-width: 1.5;" width="67" x="766.5186" y="836.5938"/><line style="stroke: #A80036; stroke-width: 1.5;" x1="766.5186" x2="833.5186" y1="862.8906" y2="862.8906"/><text fill="#000000" font-family="sans-serif" font-size="14" lengthAdjust="spacingAndGlyphs" textLength="47" x="776.5186" y="854.5889">GIVING</text><rect fill="#FEFECE" filter="url(#fcjqgkpv43h1c)" height="50" rx="12.5" ry="12.5" style="stroke: #A80036; stroke-width: 1.5;" width="69" x="765.5186" y="923.5938"/><line style="stroke: #A80036; stroke-width: 1.5;" x1="765.5186" x2="834.5186" y1="949.8906" y2="949.8906"/><text fill="#000000" font-family="sans-serif" font-size="14" lengthAdjust="spacingAndGlyphs" textLength="49" x="775.5186" y="941.5889">BROKE</text><rect fill="#FEFECE" filter="url(#fcjqgkpv43h1c)" height="50" rx="12.5" ry="12.5" style="stroke: #A80036; stroke-width: 1.5;" width="99" x="589.5186" y="1026.5938"/><line style="stroke: #A80036; stroke-width: 1.5;" x1="589.5186" x2="688.5186" y1="1052.8906" y2="1052.8906"/><text fill="#000000" font-family="sans-serif" font-size="14" lengthAdjust="spacingAndGlyphs" textLength="79" x="599.5186" y="1044.5889">GENEROUS</text><rect fill="#FEFECE" filter="url(#fcjqgkpv43h1c)" height="50" rx="12.5" ry="12.5" style="stroke: #A80036; stroke-width: 1.5;" width="120" x="719.0186" y="1129.5938"/><line style="stroke: #A80036; stroke-width: 1.5;" x1="719.0186" x2="839.0186" y1="1155.8906" y2="1155.8906"/><text fill="#000000" font-family="sans-serif" font-size="14" lengthAdjust="spacingAndGlyphs" textLength="100" x="729.0186" y="1147.5889">CREDITCHECK</text><!--MD5=[9a3047e027d1d267a84dc7fc0cb10c79]
link *start*flowsm_giving to GIVING--><path d="M800.0186,799.6051 C800.0186,807.8481 800.0186,819.9835 800.0186,831.3367 " fill="none" id="*start*flowsm_giving-&gt;GIVING" style="stroke: #A80036; stroke-width: 1.0;"/><polygon fill="#A80036" points="800.0186,836.4812,804.0186,827.4812,800.0186,831.4812,796.0186,827.4812,800.0186,836.4812" style="stroke: #A80036; stroke-width: 1.0;"/><!--MD5=[af0f7ea899e78a06a9fe7bea463c5ec4]
link GIVING to BROKE--><path d="M800.0186,886.7578 C800.0186,896.5869 800.0186,907.9448 800.0186,918.2234 " fill="none" id="GIVING-&gt;BROKE" style="stroke: #A80036; stroke-width: 1.0;"/><polygon fill="#A80036" points="800.0186,923.4862,804.0186,914.4862,800.0186,918.4862,796.0186,914.4862,800.0186,923.4862" style="stroke: #A80036; stroke-width: 1.0;"/><!--MD5=[c89a6c52353ecfaac6c0a5d8eaf08ddf]
link BROKE to GENEROUS--><path d="M765.4801,970.6899 C741.2859,986.1682 708.7617,1006.9756 682.7562,1023.6126 " fill="none" id="BROKE-&gt;GENEROUS" style="stroke: #A80036; stroke-width: 1.0;"/><polygon fill="#A80036" points="678.3111,1026.4564,688.048,1024.9756,682.5229,1023.7618,683.7367,1018.2367,678.3111,1026.4564" style="stroke: #A80036; stroke-width: 1.0;"/><text fill="#000000" font-family="sans-serif" font-size="13" lengthAdjust="spacingAndGlyphs" textLength="206" x="731.0186" y="1004.6606">RecvMsg [check_pay] / recv_pay</text><!--MD5=[fd7ee730fe36cbb93f3703a5ab21ea12]
link GENEROUS to GENEROUS--><path d="M688.764,1042.5484 C699.0919,1043.5005 706.5186,1046.5157 706.5186,1051.5938 C706.5186,1055.7991 701.4254,1058.5897 693.8093,1059.9654 " fill="none" id="GENEROUS-&gt;GENEROUS" style="stroke: #A80036; stroke-width: 1.0;"/><polygon fill="#A80036" points="688.764,1060.6392,698.2143,1063.4126,693.72,1059.9773,697.1553,1055.483,688.764,1060.6392" style="stroke: #A80036; stroke-width: 1.0;"/><text fill="#000000" font-family="sans-serif" font-size="13" lengthAdjust="spacingAndGlyphs" textLength="206" x="712.5186" y="1056.1606">RecvMsg [check_pay] / recv_pay</text><!--MD5=[915e027c9ee3a2ba77a21eb8513e9c16]
link GENEROUS to CREDITCHECK--><path d="M589.3356,1062.6496 C555.4841,1072.4845 519.9843,1088.846 539.0186,1111.5938 C560.9157,1137.7627 650.4157,1148.0251 713.6874,1152.037 " fill="none" id="GENEROUS-&gt;CREDITCHECK" style="stroke: #A80036; stroke-width: 1.0;"/><polygon fill="#A80036" points="718.9593,1152.3607,710.2215,1147.8163,713.9687,1152.0541,709.731,1155.8013,718.9593,1152.3607" style="stroke: #A80036; stroke-width: 1.0;"/><text fill="#000000" font-family="sans-serif" font-size="13" lengthAdjust="spacingAndGlyphs" textLength="216" x="540.0186" y="1107.6606">SendMsg [check_dat] / send_msg</text><!--MD5=[33edc71a33415286f6208ebaa58b329f]
link CREDITCHECK to GENEROUS--><path d="M774.8895,1129.4481 C771.7746,1117.5408 766.3638,1103.9203 757.0186,1094.5938 C740.0163,1077.6254 715.7946,1067.298 693.7159,1061.0384 " fill="none" id="CREDITCHECK-&gt;GENEROUS" style="stroke: #A80036; stroke-width: 1.0;"/><polygon fill="#A80036" points="688.7473,1059.6868,696.3818,1065.9089,693.572,1060.9992,698.4817,1058.1894,688.7473,1059.6868" style="stroke: #A80036; stroke-width: 1.0;"/><text fill="#000000" font-family="sans-serif" font-size="13" lengthAdjust="spacingAndGlyphs" textLength="165" x="769.0186" y="1107.6606">CheckCredit [have_credit]</text><!--MD5=[c659d4d45c33f6b769c0fec3dc6fdad5]
link CREDITCHECK to BROKE--><path d="M839.2623,1145.9904 C879.1863,1138.9334 926.4471,1127.5049 939.0186,1111.5938 C1040.1986,983.5364 959.4074,1015.0279 942.0186,991.5938 C929.716,975.0141 877.1419,962.3376 839.5548,955.1773 " fill="none" id="CREDITCHECK-&gt;BROKE" style="stroke: #A80036; stroke-width: 1.0;"/><polygon fill="#A80036" points="834.5877,954.2463,842.6967,959.8358,839.5021,955.1674,844.1706,951.9728,834.5877,954.2463" style="stroke: #A80036; stroke-width: 1.0;"/><text fill="#000000" font-family="sans-serif" font-size="13" lengthAdjust="spacingAndGlyphs" textLength="170" x="990.0186" y="1056.1606">CheckCredit [!have_credit]</text><!--MD5=[8a4e2b2b6e15bbdfc3b23cacbe471b79]
link *start*flowsm_flowing to FLOWING--><path d="M559.5,513.3082 C559.5,521.5512 559.5,533.6866 559.5,545.0398 " fill="none" id="*start*flowsm_flowing-&gt;FLOWING" style="stroke: #A80036; stroke-width: 1.0;"/><polygon fill="#A80036" points="559.5,550.1843,563.5,541.1843,559.5,545.1843,555.5,541.1843,559.5,550.1843" style="stroke: #A80036; stroke-width: 1.0;"/><!--MD5=[e4140839b008b2be95f32ef71da409b8]
link FLOWING to READY--><path d="M559.5,600.4609 C559.5,610.29 559.5,621.6479 559.5,631.9265 " fill="none" id="FLOWING-&gt;READY" style="stroke: #A80036; stroke-width: 1.0;"/><polygon fill="#A80036" points="559.5,637.1894,563.5,628.1894,559.5,632.1894,555.5,628.1894,559.5,637.1894" style="stroke: #A80036; stroke-width: 1.0;"/><!--MD5=[c58a98e4673636b0d61ce72e2bb61d51]
link READY to flowsm_giving--><path d="M584.2228,687.5158 C596.7496,700.294 613.2822,717.1584 632.0367,736.2892 " fill="none" id="READY-&gt;flowsm_giving" style="stroke: #A80036; stroke-width: 1.0;"/><polygon fill="#A80036" points="635.8167,740.145,632.3727,730.9179,632.3165,736.5745,626.6599,736.5182,635.8167,740.145" style="stroke: #A80036; stroke-width: 1.0;"/><text fill="#000000" font-family="sans-serif" font-size="13" lengthAdjust="spacingAndGlyphs" textLength="247" x="617.5" y="718.3638">BeginFlow [lambda(auto:8, FlowApp&amp;)]</text><!--MD5=[a50e3dda0e4741a5a320afa7373b7d94]
link READY to flowsm_taking--><path d="M525.1039,665.2142 C472.4314,670.3458 375.1801,682.653 349.5,705.2969 C324.789,727.0863 306.9306,756.0042 294.0267,786.6676 " fill="none" id="READY-&gt;flowsm_taking" style="stroke: #A80036; stroke-width: 1.0;"/><polygon fill="#A80036" points="291.9979,791.603,299.1195,784.7998,293.899,786.9785,291.7203,781.758,291.9979,791.603" style="stroke: #A80036; stroke-width: 1.0;"/><text fill="#000000" font-family="sans-serif" font-size="13" lengthAdjust="spacingAndGlyphs" textLength="247" x="350.5" y="718.3638">BeginFlow [lambda(auto:8, FlowApp&amp;)]</text><!--MD5=[60064ffd66f60c3755d7f4cc10742ab1]
link *start to CTOR--><path d="M613,28.2737 C613,41.3608 613,64.5555 613,83.5207 " fill="none" id="*start-&gt;CTOR" style="stroke: #A80036; stroke-width: 1.0;"/><polygon fill="#A80036" points="613,88.7458,617,79.7458,613,83.7458,609,79.7458,613,88.7458" style="stroke: #A80036; stroke-width: 1.0;"/><!--MD5=[1d2f793f0fbda3a9de05025a85af21a2]
link CTOR to IDLE--><path d="M613,139.1876 C613,155.6504 613,177.2461 613,194.6543 " fill="none" id="CTOR-&gt;IDLE" style="stroke: #A80036; stroke-width: 1.0;"/><polygon fill="#A80036" points="613,199.9121,617,190.9121,613,194.9121,609,190.9121,613,199.9121" style="stroke: #A80036; stroke-width: 1.0;"/><!--MD5=[b15fc15c12522dc336d617ea13c4fa0d]
link IDLE to BOTSEND--><path d="M587.6968,230.5402 C548.6763,239.6544 476.7601,258.915 462,280 C453.597,292.0038 454.3072,308.0211 457.5694,321.9003 " fill="none" id="IDLE-&gt;BOTSEND" style="stroke: #A80036; stroke-width: 1.0;"/><polygon fill="#A80036" points="458.8746,326.9056,460.4741,317.1875,457.6129,322.0674,452.733,319.2062,458.8746,326.9056" style="stroke: #A80036; stroke-width: 1.0;"/><text fill="#000000" font-family="sans-serif" font-size="13" lengthAdjust="spacingAndGlyphs" textLength="254" x="463" y="293.0669">SendMsg [check_send_bot] / send_msg</text><!--MD5=[7d9dd3e83bd1fb9406e825ef6b4270b9]
link IDLE to BOTRECV--><path d="M638.2413,232.6365 C662.2821,240.9857 698.2317,256.4066 722,280 C733.8288,291.7418 742.6386,308.0564 748.6879,322.1871 " fill="none" id="IDLE-&gt;BOTRECV" style="stroke: #A80036; stroke-width: 1.0;"/><polygon fill="#A80036" points="750.6339,326.8858,750.8855,317.0402,748.7206,322.2664,743.4944,320.1014,750.6339,326.8858" style="stroke: #A80036; stroke-width: 1.0;"/><text fill="#000000" font-family="sans-serif" font-size="13" lengthAdjust="spacingAndGlyphs" textLength="236" x="736" y="293.0669">RecvMsg [check_recv_bot] / recv_bot</text><!--MD5=[7b8cdd7da207c47a0f2d08f503a52333]
link BOTSEND to flowsm_flowing--><path d="M476.7487,377.1049 C482.0698,394.3443 489.8134,419.4326 498.9706,449.1007 " fill="none" id="BOTSEND-&gt;flowsm_flowing" style="stroke: #A80036; stroke-width: 1.0;"/><polygon fill="#A80036" points="500.4522,453.901,501.6198,444.1216,498.9775,449.1234,493.9757,446.4811,500.4522,453.901" style="stroke: #A80036; stroke-width: 1.0;"/><text fill="#000000" font-family="sans-serif" font-size="13" lengthAdjust="spacingAndGlyphs" textLength="236" x="492" y="420.0669">RecvMsg [check_recv_bot] / recv_bot</text><!--MD5=[60b556957d6882083df8924cc35895b7]
link BOTRECV to flowsm_flowing--><path d="M751.5654,377.1049 C746.4601,394.3443 739.0304,419.4326 730.2444,449.1007 " fill="none" id="BOTRECV-&gt;flowsm_flowing" style="stroke: #A80036; stroke-width: 1.0;"/><polygon fill="#A80036" points="728.8228,453.901,735.2139,446.4074,730.2427,449.1068,727.5432,444.1356,728.8228,453.901" style="stroke: #A80036; stroke-width: 1.0;"/><text fill="#000000" font-family="sans-serif" font-size="13" lengthAdjust="spacingAndGlyphs" textLength="254" x="743" y="420.0669">SendMsg [check_send_bot] / send_msg</text><!--MD5=[8773d5f0f41cab92da2c30dfd22e74c3]
link flowsm_flowing to ACKFIN--><path d="M490.2782,1209.0254 C488.334,1219.0797 486.566,1229.0835 485,1239 C482.8408,1252.6723 483.658,1267.936 485.2867,1280.8786 " fill="none" id="flowsm_flowing-&gt;ACKFIN" style="stroke: #A80036; stroke-width: 1.0;"/><polygon fill="#A80036" points="485.9732,1285.9009,488.7172,1276.442,485.2959,1280.947,480.791,1277.5257,485.9732,1285.9009" style="stroke: #A80036; stroke-width: 1.0;"/><text fill="#000000" font-family="sans-serif" font-size="13" lengthAdjust="spacingAndGlyphs" textLength="216" x="486" y="1252.0669">SendMsg [check_eot] / send_msg</text><!--MD5=[355f7ac639b9e681db4d82b7465bf0be]
link flowsm_flowing to FINACK--><path d="M717.7762,1209.017 C725.4998,1237.9504 732.1418,1262.8318 736.9313,1280.774 " fill="none" id="flowsm_flowing-&gt;FINACK" style="stroke: #A80036; stroke-width: 1.0;"/><polygon fill="#A80036" points="738.2325,1285.6481,739.7757,1275.9209,736.9428,1280.8173,732.0464,1277.9844,738.2325,1285.6481" style="stroke: #A80036; stroke-width: 1.0;"/><text fill="#000000" font-family="sans-serif" font-size="13" lengthAdjust="spacingAndGlyphs" textLength="209" x="731" y="1252.0669">RecvMsg [check_eot] / recv_msg</text><!--MD5=[965d3267340491b6ca6161b2bc98e793]
link FINACK to FIN--><path d="M735.3069,1336.0276 C728.6662,1350.8931 718.7527,1369.4286 706,1383 C689.5085,1400.5501 666.2464,1414.768 647.7806,1424.3486 " fill="none" id="FINACK-&gt;FIN" style="stroke: #A80036; stroke-width: 1.0;"/><polygon fill="#A80036" points="643.1963,1426.6836,653.0314,1426.163,647.6516,1424.4142,649.4004,1419.0345,643.1963,1426.6836" style="stroke: #A80036; stroke-width: 1.0;"/><text fill="#000000" font-family="sans-serif" font-size="13" lengthAdjust="spacingAndGlyphs" textLength="216" x="720" y="1379.0669">SendMsg [check_eot] / send_msg</text><!--MD5=[ce5da5611bd241d3c0411193df008fc3]
link ACKFIN to FIN--><path d="M482.4993,1336.3061 C479.1628,1351.091 477.9906,1369.4461 487,1383 C509.266,1416.4972 556.3182,1429.6362 587.5458,1434.7612 " fill="none" id="ACKFIN-&gt;FIN" style="stroke: #A80036; stroke-width: 1.0;"/><polygon fill="#A80036" points="592.7987,1435.5726,584.5148,1430.2456,587.8573,1434.8093,583.2936,1438.1518,592.7987,1435.5726" style="stroke: #A80036; stroke-width: 1.0;"/><text fill="#000000" font-family="sans-serif" font-size="13" lengthAdjust="spacingAndGlyphs" textLength="209" x="488" y="1379.0669">RecvMsg [check_eot] / recv_msg</text><!--MD5=[ae141861a332ab01fbc37e56ad19a9d6]
@startuml

[*] - -> CTOR
CTOR - -> IDLE
IDLE - -> BOTSEND : SendMsg [check_send_bot] / send_msg
IDLE - -> BOTRECV : RecvMsg [check_recv_bot] / recv_bot
BOTSEND - -> flowsm_flowing : RecvMsg [check_recv_bot] / recv_bot
BOTRECV - -> flowsm_flowing : SendMsg [check_send_bot] / send_msg
flowsm_flowing - -> ACKFIN : SendMsg [check_eot] / send_msg
flowsm_flowing - -> FINACK : RecvMsg [check_eot] / recv_msg
FINACK - -> FIN : SendMsg [check_eot] / send_msg
ACKFIN - -> FIN : RecvMsg [check_eot] / recv_msg

state flowsm_flowing {
[*] - -> FLOWING
FLOWING - -> READY
READY - -> flowsm_giving : BeginFlow [lambda(auto:8, FlowApp&)]
READY - -> flowsm_taking : BeginFlow [lambda(auto:8, FlowApp&)]

state flowsm_taking {
[*] - -> TAKING
TAKING - -> WALLETCHECK
WALLETCHECK - -> HANDSOUT : FlushPay [have_credit] / flush_msg
HANDSOUT - -> WALLETCHECK : RecvMsg [check_dat] / recv_msg
}

state flowsm_giving {
[*] - -> GIVING
GIVING - -> BROKE
BROKE - -> GENEROUS : RecvMsg [check_pay] / recv_pay
GENEROUS - -> GENEROUS : RecvMsg [check_pay] / recv_pay
GENEROUS - -> CREDITCHECK : SendMsg [check_dat] / send_msg
CREDITCHECK - -> GENEROUS : CheckCredit [have_credit]
CREDITCHECK - -> BROKE : CheckCredit [!have_credit]
}
}

@enduml

PlantUML version 1.2020.01(Sun Feb 16 12:40:32 EST 2020)
(GPL source distribution)
Java Runtime: OpenJDK Runtime Environment
JVM: OpenJDK 64-Bit Server VM
Java Version: 1.8.0_242-8u242-b08-0ubuntu3~18.04-b08
Operating System: Linux
Default Encoding: UTF-8
Language: en
Country: US
--></g></svg>