<?xml version="1.0" encoding="UTF-8" standalone="no"?><svg xmlns="http://www.w3.org/2000/svg" xmlns:xlink="http://www.w3.org/1999/xlink" contentScriptType="application/ecmascript" contentStyleType="text/css" height="423px" preserveAspectRatio="none" style="width:450px;height:423px;" version="1.1" viewBox="0 0 450 423" width="450px" zoomAndPan="magnify"><defs><filter height="300%" id="f9vgerf6rxig9" width="300%" x="-1" y="-1"><feGaussianBlur result="blurOut" stdDeviation="2.0"/><feColorMatrix in="blurOut" result="blurOut2" type="matrix" values="0 0 0 0 0 0 0 0 0 0 0 0 0 0 0 0 0 0 .4 0"/><feOffset dx="4.0" dy="4.0" in="blurOut2" result="blurOut3"/><feBlend in="SourceGraphic" in2="blurOut3" mode="normal"/></filter></defs><g><text fill="#000000" font-family="sans-serif" font-size="18" lengthAdjust="spacingAndGlyphs" textLength="239" x="103.5" y="26.708">ZIO Flow Broker Sequence</text><line style="stroke: #A80036; stroke-width: 1.0; stroke-dasharray: 5.0,5.0;" x1="30.5" x2="30.5" y1="73.25" y2="382.5781"/><line style="stroke: #A80036; stroke-width: 1.0; stroke-dasharray: 5.0,5.0;" x1="111.5" x2="111.5" y1="73.25" y2="382.5781"/><line style="stroke: #A80036; stroke-width: 1.0; stroke-dasharray: 5.0,5.0;" x1="213.5" x2="213.5" y1="73.25" y2="382.5781"/><line style="stroke: #A80036; stroke-width: 1.0; stroke-dasharray: 5.0,5.0;" x1="290" x2="290" y1="73.25" y2="382.5781"/><rect fill="#FFFFFF" filter="url(#f9vgerf6rxig9)" height="182.7969" style="stroke: #A80036; stroke-width: 1.0;" width="10" x="285" y="189.7813"/><line style="stroke: #A80036; stroke-width: 1.0; stroke-dasharray: 5.0,5.0;" x1="411" x2="411" y1="73.25" y2="382.5781"/><rect fill="#FEFECE" filter="url(#f9vgerf6rxig9)" height="30.2969" style="stroke: #A80036; stroke-width: 1.5;" width="51" x="3" y="37.9531"/><text fill="#000000" font-family="sans-serif" font-size="14" lengthAdjust="spacingAndGlyphs" textLength="37" x="10" y="57.9482">client</text><rect fill="#FEFECE" filter="url(#f9vgerf6rxig9)" height="30.2969" style="stroke: #A80036; stroke-width: 1.5;" width="42" x="88.5" y="37.9531"/><text fill="#000000" font-family="sans-serif" font-size="14" lengthAdjust="spacingAndGlyphs" textLength="28" x="95.5" y="57.9482">port</text><rect fill="#FEFECE" filter="url(#f9vgerf6rxig9)" height="30.2969" style="stroke: #A80036; stroke-width: 1.5;" width="59" x="182" y="37.9531"/><text fill="#000000" font-family="sans-serif" font-size="14" lengthAdjust="spacingAndGlyphs" textLength="45" x="189" y="57.9482">broker</text><rect fill="#FEFECE" filter="url(#f9vgerf6rxig9)" height="30.2969" style="stroke: #A80036; stroke-width: 1.5;" width="66" x="255" y="37.9531"/><text fill="#000000" font-family="sans-serif" font-size="14" lengthAdjust="spacingAndGlyphs" textLength="52" x="262" y="57.9482">handler</text><rect fill="#FEFECE" filter="url(#f9vgerf6rxig9)" height="30.2969" style="stroke: #A80036; stroke-width: 1.5;" width="60" x="379" y="37.9531"/><text fill="#000000" font-family="sans-serif" font-size="14" lengthAdjust="spacingAndGlyphs" textLength="46" x="386" y="57.9482">factory</text><rect fill="#FEFECE" filter="url(#f9vgerf6rxig9)" height="30.2969" style="stroke: #A80036; stroke-width: 1.5;" width="51" x="3" y="382.5781"/><text fill="#000000" font-family="sans-serif" font-size="14" lengthAdjust="spacingAndGlyphs" textLength="37" x="10" y="402.5732">client</text><rect fill="#FEFECE" filter="url(#f9vgerf6rxig9)" height="30.2969" style="stroke: #A80036; stroke-width: 1.5;" width="42" x="88.5" y="382.5781"/><text fill="#000000" font-family="sans-serif" font-size="14" lengthAdjust="spacingAndGlyphs" textLength="28" x="95.5" y="402.5732">port</text><rect fill="#FEFECE" filter="url(#f9vgerf6rxig9)" height="30.2969" style="stroke: #A80036; stroke-width: 1.5;" width="59" x="182" y="382.5781"/><text fill="#000000" font-family="sans-serif" font-size="14" lengthAdjust="spacingAndGlyphs" textLength="45" x="189" y="402.5732">broker</text><rect fill="#FEFECE" filter="url(#f9vgerf6rxig9)" height="30.2969" style="stroke: #A80036; stroke-width: 1.5;" width="66" x="255" y="382.5781"/><text fill="#000000" font-family="sans-serif" font-size="14" lengthAdjust="spacingAndGlyphs" textLength="52" x="262" y="402.5732">handler</text><rect fill="#FEFECE" filter="url(#f9vgerf6rxig9)" height="30.2969" style="stroke: #A80036; stroke-width: 1.5;" width="60" x="379" y="382.5781"/><text fill="#000000" font-family="sans-serif" font-size="14" lengthAdjust="spacingAndGlyphs" textLength="46" x="386" y="402.5732">factory</text><polygon fill="#A80036" points="122.5,98.3828,112.5,102.3828,122.5,106.3828,118.5,102.3828" style="stroke: #A80036; stroke-width: 1.0;"/><line style="stroke: #A80036; stroke-width: 1.0;" x1="116.5" x2="212.5" y1="102.3828" y2="102.3828"/><text fill="#000000" font-family="sans-serif" font-size="13" lengthAdjust="spacingAndGlyphs" textLength="62" x="128.5" y="97.3169">recv(wait)</text><polygon fill="#A80036" points="99.5,127.5156,109.5,131.5156,99.5,135.5156,103.5,131.5156" style="stroke: #A80036; stroke-width: 1.0;"/><line style="stroke: #A80036; stroke-width: 1.0;" x1="30.5" x2="105.5" y1="131.5156" y2="131.5156"/><text fill="#000000" font-family="sans-serif" font-size="13" lengthAdjust="spacingAndGlyphs" textLength="57" x="37.5" y="126.4497">BOT-rem</text><polygon fill="#A80036" points="201.5,127.5156,211.5,131.5156,201.5,135.5156,205.5,131.5156" style="stroke: #A80036; stroke-width: 1.0;"/><line style="stroke: #A80036; stroke-width: 1.0;" x1="111.5" x2="207.5" y1="131.5156" y2="131.5156"/><text fill="#000000" font-family="sans-serif" font-size="13" lengthAdjust="spacingAndGlyphs" textLength="57" x="118.5" y="126.4497">BOT-rem</text><polygon fill="#A80036" points="399,156.6484,409,160.6484,399,164.6484,403,160.6484" style="stroke: #A80036; stroke-width: 1.0;"/><line style="stroke: #A80036; stroke-width: 1.0;" x1="213.5" x2="405" y1="160.6484" y2="160.6484"/><text fill="#000000" font-family="sans-serif" font-size="13" lengthAdjust="spacingAndGlyphs" textLength="109" x="220.5" y="155.5825">call(BOT-loc+cid)</text><polygon fill="#A80036" points="306,185.7813,296,189.7813,306,193.7813,302,189.7813" style="stroke: #A80036; stroke-width: 1.0;"/><line style="stroke: #A80036; stroke-width: 1.0;" x1="300" x2="410" y1="189.7813" y2="189.7813"/><text fill="#000000" font-family="sans-serif" font-size="13" lengthAdjust="spacingAndGlyphs" textLength="92" x="312" y="184.7153">spawn handler</text><polygon fill="#A80036" points="122.5,214.9141,112.5,218.9141,122.5,222.9141,118.5,218.9141" style="stroke: #A80036; stroke-width: 1.0;"/><line style="stroke: #A80036; stroke-width: 1.0;" x1="116.5" x2="284" y1="218.9141" y2="218.9141"/><text fill="#000000" font-family="sans-serif" font-size="13" lengthAdjust="spacingAndGlyphs" textLength="78" x="128.5" y="213.8481">BOT-loc+cid</text><polygon fill="#A80036" points="201.5,244.0469,211.5,248.0469,201.5,252.0469,205.5,248.0469" style="stroke: #A80036; stroke-width: 1.0;"/><line style="stroke: #A80036; stroke-width: 1.0;" x1="111.5" x2="207.5" y1="248.0469" y2="248.0469"/><text fill="#000000" font-family="sans-serif" font-size="13" lengthAdjust="spacingAndGlyphs" textLength="78" x="118.5" y="242.981">BOT-loc+cid</text><polygon fill="#A80036" points="122.5,273.1797,112.5,277.1797,122.5,281.1797,118.5,277.1797" style="stroke: #A80036; stroke-width: 1.0;"/><line style="stroke: #A80036; stroke-width: 1.0;" x1="116.5" x2="212.5" y1="277.1797" y2="277.1797"/><polygon fill="#A80036" points="41.5,273.1797,31.5,277.1797,41.5,281.1797,37.5,277.1797" style="stroke: #A80036; stroke-width: 1.0;"/><line style="stroke: #A80036; stroke-width: 1.0;" x1="35.5" x2="110.5" y1="277.1797" y2="277.1797"/><text fill="#000000" font-family="sans-serif" font-size="13" lengthAdjust="spacingAndGlyphs" textLength="49" x="47.5" y="272.1138">BOT-loc</text><polygon fill="#A80036" points="122.5,302.3125,112.5,306.3125,122.5,310.3125,118.5,306.3125" style="stroke: #A80036; stroke-width: 1.0;"/><line style="stroke: #A80036; stroke-width: 1.0;" x1="116.5" x2="212.5" y1="306.3125" y2="306.3125"/><text fill="#000000" font-family="sans-serif" font-size="13" lengthAdjust="spacingAndGlyphs" textLength="57" x="128.5" y="301.2466">BOT-rem</text><polygon fill="#A80036" points="273,331.4453,283,335.4453,273,339.4453,277,335.4453" style="stroke: #A80036; stroke-width: 1.0;"/><line style="stroke: #A80036; stroke-width: 1.0;" x1="111.5" x2="279" y1="335.4453" y2="335.4453"/><text fill="#000000" font-family="sans-serif" font-size="13" lengthAdjust="spacingAndGlyphs" textLength="57" x="118.5" y="330.3794">BOT-rem</text><polygon fill="#A80036" points="41.5,360.5781,31.5,364.5781,41.5,368.5781,37.5,364.5781" style="stroke: #A80036; stroke-width: 1.0;"/><polygon fill="#A80036" points="99.5,360.5781,109.5,364.5781,99.5,368.5781,103.5,364.5781" style="stroke: #A80036; stroke-width: 1.0;"/><line style="stroke: #A80036; stroke-width: 1.0;" x1="35.5" x2="105.5" y1="364.5781" y2="364.5781"/><polygon fill="#A80036" points="122.5,360.5781,112.5,364.5781,122.5,368.5781,118.5,364.5781" style="stroke: #A80036; stroke-width: 1.0;"/><polygon fill="#A80036" points="273,360.5781,283,364.5781,273,368.5781,277,364.5781" style="stroke: #A80036; stroke-width: 1.0;"/><line style="stroke: #A80036; stroke-width: 1.0;" x1="116.5" x2="279" y1="364.5781" y2="364.5781"/><text fill="#000000" font-family="sans-serif" font-size="13" lengthAdjust="spacingAndGlyphs" textLength="83" x="128.5" y="359.5122">PAY/DAT/EOT</text><polygon fill="#A80036" points="122.5,360.5781,112.5,364.5781,122.5,368.5781,118.5,364.5781" style="stroke: #A80036; stroke-width: 1.0;"/><polygon fill="#A80036" points="201.5,360.5781,211.5,364.5781,201.5,368.5781,205.5,364.5781" style="stroke: #A80036; stroke-width: 1.0;"/><line style="stroke: #A80036; stroke-width: 1.0;" x1="116.5" x2="207.5" y1="364.5781" y2="364.5781"/><!--MD5=[fa0435017af7064c6ffaa4312dbedd1a]
@startuml
!pragma teoz true

title ZIO Flow Broker Sequence
participant "client" as client
participant "port" as feport
participant "broker" as broker
participant "handler" as app
participant "factory" as factory

broker -> feport : recv(wait)
client -> feport : BOT-rem
& feport -> broker : BOT-rem
broker -> factory : call(BOT-loc+cid)
factory -> app : spawn handler
activate app
        app -> feport : BOT-loc+cid
        feport -> broker : BOT-loc+cid
        broker -> feport 
        & feport -> client : BOT-loc
        broker -> feport : BOT-rem
        feport -> app  : BOT-rem
        
        client <-> feport
        & feport <-> app : PAY/DAT/EOT
        & broker <-> feport

deactivate app

@enduml

PlantUML version 1.2020.01(Sun Feb 16 12:40:32 EST 2020)
(GPL source distribution)
Java Runtime: OpenJDK Runtime Environment
JVM: OpenJDK 64-Bit Server VM
Java Version: 1.8.0_242-8u242-b08-0ubuntu3~18.04-b08
Operating System: Linux
Default Encoding: UTF-8
Language: en
Country: US
--></g></svg>