<?xml version="1.0" encoding="UTF-8" standalone="no"?><svg xmlns="http://www.w3.org/2000/svg" xmlns:xlink="http://www.w3.org/1999/xlink" contentScriptType="application/ecmascript" contentStyleType="text/css" height="762px" preserveAspectRatio="none" style="width:350px;height:762px;" version="1.1" viewBox="0 0 350 762" width="350px" zoomAndPan="magnify"><defs><filter height="300%" id="fwjtja2y96itl" width="300%" x="-1" y="-1"><feGaussianBlur result="blurOut" stdDeviation="2.0"/><feColorMatrix in="blurOut" result="blurOut2" type="matrix" values="0 0 0 0 0 0 0 0 0 0 0 0 0 0 0 0 0 0 .4 0"/><feOffset dx="4.0" dy="4.0" in="blurOut2" result="blurOut3"/><feBlend in="SourceGraphic" in2="blurOut3" mode="normal"/></filter></defs><g><text fill="#000000" font-family="sans-serif" font-size="18" lengthAdjust="spacingAndGlyphs" textLength="296" x="28.25" y="26.708">Extract data from client to server</text><rect fill="#FFFFFF" filter="url(#fwjtja2y96itl)" height="629.5234" style="stroke: #A80036; stroke-width: 1.0;" width="10" x="107.5" y="83.25"/><rect fill="#FFFFFF" filter="url(#fwjtja2y96itl)" height="581.3906" style="stroke: #A80036; stroke-width: 1.0;" width="10" x="204.5" y="112.3828"/><rect fill="#FFFFFF" filter="url(#fwjtja2y96itl)" height="95.3984" style="stroke: #000000; stroke-width: 2.0;" width="327.5" x="12" y="161.5156"/><rect fill="#FFFFFF" filter="url(#fwjtja2y96itl)" height="415.8594" style="stroke: #000000; stroke-width: 2.0;" width="222.5" x="72" y="270.9141"/><line style="stroke: #A80036; stroke-width: 1.0; stroke-dasharray: 5.0,5.0;" x1="112" x2="112" y1="73.25" y2="721.7734"/><line style="stroke: #A80036; stroke-width: 1.0; stroke-dasharray: 5.0,5.0;" x1="209" x2="209" y1="73.25" y2="721.7734"/><rect fill="#FEFECE" filter="url(#fwjtja2y96itl)" height="30.2969" style="stroke: #A80036; stroke-width: 1.5;" width="57" x="82" y="37.9531"/><text fill="#000000" font-family="sans-serif" font-size="14" lengthAdjust="spacingAndGlyphs" textLength="43" x="89" y="57.9482">server</text><rect fill="#FEFECE" filter="url(#fwjtja2y96itl)" height="30.2969" style="stroke: #A80036; stroke-width: 1.5;" width="57" x="82" y="720.7734"/><text fill="#000000" font-family="sans-serif" font-size="14" lengthAdjust="spacingAndGlyphs" textLength="43" x="89" y="740.7686">server</text><rect fill="#FEFECE" filter="url(#fwjtja2y96itl)" height="30.2969" style="stroke: #A80036; stroke-width: 1.5;" width="51" x="182" y="37.9531"/><text fill="#000000" font-family="sans-serif" font-size="14" lengthAdjust="spacingAndGlyphs" textLength="37" x="189" y="57.9482">client</text><rect fill="#FEFECE" filter="url(#fwjtja2y96itl)" height="30.2969" style="stroke: #A80036; stroke-width: 1.5;" width="51" x="182" y="720.7734"/><text fill="#000000" font-family="sans-serif" font-size="14" lengthAdjust="spacingAndGlyphs" textLength="37" x="189" y="740.7686">client</text><rect fill="#FFFFFF" filter="url(#fwjtja2y96itl)" height="629.5234" style="stroke: #A80036; stroke-width: 1.0;" width="10" x="107.5" y="83.25"/><rect fill="#FFFFFF" filter="url(#fwjtja2y96itl)" height="581.3906" style="stroke: #A80036; stroke-width: 1.0;" width="10" x="204.5" y="112.3828"/><line style="stroke: #A80036; stroke-width: 1.0;" x1="117.5" x2="164.5" y1="99.3828" y2="99.3828"/><line style="stroke: #A80036; stroke-width: 1.0;" x1="164.5" x2="164.5" y1="99.3828" y2="112.3828"/><line style="stroke: #A80036; stroke-width: 1.0;" x1="123.5" x2="164.5" y1="112.3828" y2="112.3828"/><polygon fill="#A80036" points="133.5,108.3828,123.5,112.3828,133.5,116.3828,129.5,112.3828" style="stroke: #A80036; stroke-width: 1.0;"/><text fill="#000000" font-family="sans-serif" font-size="13" lengthAdjust="spacingAndGlyphs" textLength="32" x="129.5" y="94.3169">BIND</text><polygon fill="#A80036" points="128.5,142.5156,118.5,146.5156,128.5,150.5156,124.5,146.5156" style="stroke: #A80036; stroke-width: 1.0;"/><line style="stroke: #A80036; stroke-width: 1.0;" x1="122.5" x2="203.5" y1="146.5156" y2="146.5156"/><text fill="#000000" font-family="sans-serif" font-size="13" lengthAdjust="spacingAndGlyphs" textLength="63" x="134.5" y="141.4497">CONNECT</text><path d="M12,161.5156 L108,161.5156 L108,168.5156 L98,178.5156 L12,178.5156 L12,161.5156 " fill="#EEEEEE" style="stroke: #000000; stroke-width: 1.0;"/><rect fill="none" height="95.3984" style="stroke: #000000; stroke-width: 2.0;" width="327.5" x="12" y="161.5156"/><text fill="#000000" font-family="sans-serif" font-size="13" font-weight="bold" lengthAdjust="spacingAndGlyphs" textLength="51" x="27" y="174.5825">initiate</text><polygon fill="#A80036" points="128.5,200.7813,118.5,204.7813,128.5,208.7813,124.5,204.7813" style="stroke: #A80036; stroke-width: 1.0;"/><line style="stroke: #A80036; stroke-width: 1.0;" x1="122.5" x2="203.5" y1="204.7813" y2="204.7813"/><text fill="#000000" font-family="sans-serif" font-size="13" lengthAdjust="spacingAndGlyphs" textLength="26" x="134.5" y="199.7153">BOT</text><path d="M22,183.6484 L22,208.6484 L98,208.6484 L98,193.6484 L88,183.6484 L22,183.6484 " fill="#FBFB77" filter="url(#fwjtja2y96itl)" style="stroke: #A80036; stroke-width: 1.0;"/><path d="M88,183.6484 L88,193.6484 L98,193.6484 L88,183.6484 " fill="#FBFB77" style="stroke: #A80036; stroke-width: 1.0;"/><text fill="#000000" font-family="sans-serif" font-size="13" lengthAdjust="spacingAndGlyphs" textLength="55" x="28" y="200.7153">direction</text><polygon fill="#A80036" points="192.5,239.9141,202.5,243.9141,192.5,247.9141,196.5,243.9141" style="stroke: #A80036; stroke-width: 1.0;"/><line style="stroke: #A80036; stroke-width: 1.0;" x1="117.5" x2="198.5" y1="243.9141" y2="243.9141"/><text fill="#000000" font-family="sans-serif" font-size="13" lengthAdjust="spacingAndGlyphs" textLength="26" x="124.5" y="238.8481">BOT</text><path d="M219,222.7813 L219,247.7813 L325,247.7813 L325,232.7813 L315,222.7813 L219,222.7813 " fill="#FBFB77" filter="url(#fwjtja2y96itl)" style="stroke: #A80036; stroke-width: 1.0;"/><path d="M315,222.7813 L315,232.7813 L325,232.7813 L315,222.7813 " fill="#FBFB77" style="stroke: #A80036; stroke-width: 1.0;"/><text fill="#000000" font-family="sans-serif" font-size="13" lengthAdjust="spacingAndGlyphs" textLength="85" x="225" y="239.8481">credits (eg 2)</text><path d="M72,270.9141 L245,270.9141 L245,277.9141 L235,287.9141 L72,287.9141 L72,270.9141 " fill="#EEEEEE" style="stroke: #000000; stroke-width: 1.0;"/><rect fill="none" height="415.8594" style="stroke: #000000; stroke-width: 2.0;" width="222.5" x="72" y="270.9141"/><text fill="#000000" font-family="sans-serif" font-size="13" font-weight="bold" lengthAdjust="spacingAndGlyphs" textLength="128" x="87" y="283.981">transfer (extract)</text><polygon fill="#A80036" points="192.5,305.1797,202.5,309.1797,192.5,313.1797,196.5,309.1797" style="stroke: #A80036; stroke-width: 1.0;"/><line style="stroke: #A80036; stroke-width: 1.0; stroke-dasharray: 2.0,2.0;" x1="117.5" x2="198.5" y1="309.1797" y2="309.1797"/><text fill="#000000" font-family="sans-serif" font-size="13" lengthAdjust="spacingAndGlyphs" textLength="46" x="124.5" y="304.1138">PAY (2)</text><polygon fill="#A80036" points="128.5,339.3125,118.5,343.3125,128.5,347.3125,124.5,343.3125" style="stroke: #A80036; stroke-width: 1.0;"/><line style="stroke: #A80036; stroke-width: 1.0;" x1="122.5" x2="203.5" y1="343.3125" y2="343.3125"/><text fill="#000000" font-family="sans-serif" font-size="13" lengthAdjust="spacingAndGlyphs" textLength="26" x="134.5" y="338.2466">DAT</text><path d="M219,322.1797 L219,347.1797 L280,347.1797 L280,332.1797 L270,322.1797 L219,322.1797 " fill="#FBFB77" filter="url(#fwjtja2y96itl)" style="stroke: #A80036; stroke-width: 1.0;"/><path d="M270,322.1797 L270,332.1797 L280,332.1797 L270,322.1797 " fill="#FBFB77" style="stroke: #A80036; stroke-width: 1.0;"/><text fill="#000000" font-family="sans-serif" font-size="13" lengthAdjust="spacingAndGlyphs" textLength="40" x="225" y="339.2466">1 cred</text><polygon fill="#A80036" points="192.5,378.4453,202.5,382.4453,192.5,386.4453,196.5,382.4453" style="stroke: #A80036; stroke-width: 1.0;"/><line style="stroke: #A80036; stroke-width: 1.0; stroke-dasharray: 2.0,2.0;" x1="117.5" x2="198.5" y1="382.4453" y2="382.4453"/><text fill="#000000" font-family="sans-serif" font-size="13" lengthAdjust="spacingAndGlyphs" textLength="46" x="124.5" y="377.3794">PAY (1)</text><path d="M219,361.3125 L219,386.3125 L280,386.3125 L280,371.3125 L270,361.3125 L219,361.3125 " fill="#FBFB77" filter="url(#fwjtja2y96itl)" style="stroke: #A80036; stroke-width: 1.0;"/><path d="M270,361.3125 L270,371.3125 L280,371.3125 L270,361.3125 " fill="#FBFB77" style="stroke: #A80036; stroke-width: 1.0;"/><text fill="#000000" font-family="sans-serif" font-size="13" lengthAdjust="spacingAndGlyphs" textLength="40" x="225" y="378.3794">2 cred</text><polygon fill="#A80036" points="128.5,412.5781,118.5,416.5781,128.5,420.5781,124.5,416.5781" style="stroke: #A80036; stroke-width: 1.0;"/><line style="stroke: #A80036; stroke-width: 1.0;" x1="122.5" x2="203.5" y1="416.5781" y2="416.5781"/><text fill="#000000" font-family="sans-serif" font-size="13" lengthAdjust="spacingAndGlyphs" textLength="26" x="134.5" y="411.5122">DAT</text><polygon fill="#A80036" points="128.5,441.7109,118.5,445.7109,128.5,449.7109,124.5,445.7109" style="stroke: #A80036; stroke-width: 1.0;"/><line style="stroke: #A80036; stroke-width: 1.0;" x1="122.5" x2="203.5" y1="445.7109" y2="445.7109"/><text fill="#000000" font-family="sans-serif" font-size="13" lengthAdjust="spacingAndGlyphs" textLength="26" x="134.5" y="440.645">DAT</text><polygon fill="#A80036" points="192.5,470.8438,202.5,474.8438,192.5,478.8438,196.5,474.8438" style="stroke: #A80036; stroke-width: 1.0;"/><line style="stroke: #A80036; stroke-width: 1.0; stroke-dasharray: 2.0,2.0;" x1="117.5" x2="198.5" y1="474.8438" y2="474.8438"/><text fill="#000000" font-family="sans-serif" font-size="13" lengthAdjust="spacingAndGlyphs" textLength="46" x="124.5" y="469.7778">PAY (2)</text><polygon fill="#A80036" points="128.5,499.9766,118.5,503.9766,128.5,507.9766,124.5,503.9766" style="stroke: #A80036; stroke-width: 1.0;"/><line style="stroke: #A80036; stroke-width: 1.0;" x1="122.5" x2="203.5" y1="503.9766" y2="503.9766"/><text fill="#000000" font-family="sans-serif" font-size="13" lengthAdjust="spacingAndGlyphs" textLength="26" x="134.5" y="498.9106">DAT</text><polygon fill="#A80036" points="192.5,529.1094,202.5,533.1094,192.5,537.1094,196.5,533.1094" style="stroke: #A80036; stroke-width: 1.0;"/><line style="stroke: #A80036; stroke-width: 1.0; stroke-dasharray: 2.0,2.0;" x1="117.5" x2="198.5" y1="533.1094" y2="533.1094"/><text fill="#000000" font-family="sans-serif" font-size="13" lengthAdjust="spacingAndGlyphs" textLength="46" x="124.5" y="528.0435">PAY (1)</text><polygon fill="#A80036" points="128.5,558.2422,118.5,562.2422,128.5,566.2422,124.5,562.2422" style="stroke: #A80036; stroke-width: 1.0;"/><line style="stroke: #A80036; stroke-width: 1.0;" x1="122.5" x2="203.5" y1="562.2422" y2="562.2422"/><text fill="#000000" font-family="sans-serif" font-size="13" lengthAdjust="spacingAndGlyphs" textLength="26" x="134.5" y="557.1763">DAT</text><polygon fill="#A80036" points="128.5,587.375,118.5,591.375,128.5,595.375,124.5,591.375" style="stroke: #A80036; stroke-width: 1.0;"/><line style="stroke: #A80036; stroke-width: 1.0;" x1="122.5" x2="203.5" y1="591.375" y2="591.375"/><text fill="#000000" font-family="sans-serif" font-size="13" lengthAdjust="spacingAndGlyphs" textLength="26" x="134.5" y="586.3091">DAT</text><polygon fill="#A80036" points="128.5,616.5078,118.5,620.5078,128.5,624.5078,124.5,620.5078" style="stroke: #A80036; stroke-width: 1.0;"/><line style="stroke: #A80036; stroke-width: 1.0;" x1="122.5" x2="203.5" y1="620.5078" y2="620.5078"/><text fill="#000000" font-family="sans-serif" font-size="13" lengthAdjust="spacingAndGlyphs" textLength="25" x="134.5" y="615.4419">EOT</text><polygon fill="#A80036" points="192.5,645.6406,202.5,649.6406,192.5,653.6406,196.5,649.6406" style="stroke: #A80036; stroke-width: 1.0;"/><line style="stroke: #A80036; stroke-width: 1.0; stroke-dasharray: 2.0,2.0;" x1="117.5" x2="198.5" y1="649.6406" y2="649.6406"/><text fill="#000000" font-family="sans-serif" font-size="13" lengthAdjust="spacingAndGlyphs" textLength="46" x="124.5" y="644.5747">PAY (2)</text><polygon fill="#A80036" points="192.5,674.7734,202.5,678.7734,192.5,682.7734,196.5,678.7734" style="stroke: #A80036; stroke-width: 1.0;"/><line style="stroke: #A80036; stroke-width: 1.0; stroke-dasharray: 2.0,2.0;" x1="117.5" x2="198.5" y1="678.7734" y2="678.7734"/><text fill="#000000" font-family="sans-serif" font-size="13" lengthAdjust="spacingAndGlyphs" textLength="25" x="124.5" y="673.7075">EOT</text><line style="stroke: #A80036; stroke-width: 2.0;" x1="200.5" x2="218.5" y1="693.7734" y2="711.7734"/><line style="stroke: #A80036; stroke-width: 2.0;" x1="200.5" x2="218.5" y1="711.7734" y2="693.7734"/><!--MD5=[65361cbcd4c88522d16c64d84849a4ac]
@startuml
title Extract data from client to server
activate server
        server -> server: BIND
        activate client
                client -> server : CONNECT
                group initiate
                        client -> server : BOT
                        note left
                                direction
                        end note
                        server -> client : BOT
                        note right
                                credits (eg 2)
                        end note
                end
                group transfer (extract)
                        server - -> client : PAY (2)
                        client  -> server : DAT
                        note right
                                1 cred
                        end note
                        server - -> client : PAY (1)
                        note right
                                2 cred
                        end note
                        client  -> server : DAT
                        client  -> server : DAT
                        server - -> client : PAY (2)
                        client  -> server : DAT
                        server - -> client : PAY (1)
                        client  -> server : DAT
                        client  -> server : DAT
                        client -> server : EOT
                        server - -> client : PAY (2)
                        server - -> client : EOT
                end
                destroy client
                @enduml

PlantUML version 1.2020.01(Sun Feb 16 12:40:32 EST 2020)
(GPL source distribution)
Java Runtime: OpenJDK Runtime Environment
JVM: OpenJDK 64-Bit Server VM
Java Version: 1.8.0_242-8u242-b08-0ubuntu3~18.04-b08
Operating System: Linux
Default Encoding: UTF-8
Language: en
Country: US
--></g></svg>