<?xml version="1.0" encoding="UTF-8" standalone="no"?><svg xmlns="http://www.w3.org/2000/svg" xmlns:xlink="http://www.w3.org/1999/xlink" contentScriptType="application/ecmascript" contentStyleType="text/css" height="513px" preserveAspectRatio="none" style="width:433px;height:513px;" version="1.1" viewBox="0 0 433 513" width="433px" zoomAndPan="magnify"><defs><filter height="300%" id="f1924b9rkhxscr" width="300%" x="-1" y="-1"><feGaussianBlur result="blurOut" stdDeviation="2.0"/><feColorMatrix in="blurOut" result="blurOut2" type="matrix" values="0 0 0 0 0 0 0 0 0 0 0 0 0 0 0 0 0 0 .4 0"/><feOffset dx="4.0" dy="4.0" in="blurOut2" result="blurOut3"/><feBlend in="SourceGraphic" in2="blurOut3" mode="normal"/></filter></defs><g><text fill="#000000" font-family="sans-serif" font-size="18" lengthAdjust="spacingAndGlyphs" textLength="239" x="96.5" y="26.708">ZIO Flow Server Sequence</text><rect fill="#FFFFFF" filter="url(#f1924b9rkhxscr)" height="248.0625" style="stroke: #A80036; stroke-width: 1.0;" width="10" x="369" y="206.9141"/><rect fill="#FFFFFF" filter="url(#f1924b9rkhxscr)" height="117.5313" style="stroke: #000000; stroke-width: 2.0;" width="299.5" x="119.5" y="309.3125"/><line style="stroke: #A80036; stroke-width: 1.0; stroke-dasharray: 5.0,5.0;" x1="31" x2="31" y1="73.25" y2="472.9766"/><line style="stroke: #A80036; stroke-width: 1.0; stroke-dasharray: 5.0,5.0;" x1="159.5" x2="159.5" y1="73.25" y2="472.9766"/><line style="stroke: #A80036; stroke-width: 1.0; stroke-dasharray: 5.0,5.0;" x1="258" x2="258" y1="73.25" y2="472.9766"/><line style="stroke: #A80036; stroke-width: 1.0; stroke-dasharray: 5.0,5.0;" x1="374" x2="374" y1="73.25" y2="472.9766"/><rect fill="#FEFECE" filter="url(#f1924b9rkhxscr)" height="30.2969" style="stroke: #A80036; stroke-width: 1.5;" width="42" x="8" y="37.9531"/><text fill="#000000" font-family="sans-serif" font-size="14" lengthAdjust="spacingAndGlyphs" textLength="28" x="15" y="57.9482">port</text><rect fill="#FEFECE" filter="url(#f1924b9rkhxscr)" height="30.2969" style="stroke: #A80036; stroke-width: 1.5;" width="42" x="8" y="471.9766"/><text fill="#000000" font-family="sans-serif" font-size="14" lengthAdjust="spacingAndGlyphs" textLength="28" x="15" y="491.9717">port</text><rect fill="#FEFECE" filter="url(#f1924b9rkhxscr)" height="30.2969" style="stroke: #A80036; stroke-width: 1.5;" width="57" x="129.5" y="37.9531"/><text fill="#000000" font-family="sans-serif" font-size="14" lengthAdjust="spacingAndGlyphs" textLength="43" x="136.5" y="57.9482">server</text><rect fill="#FEFECE" filter="url(#f1924b9rkhxscr)" height="30.2969" style="stroke: #A80036; stroke-width: 1.5;" width="57" x="129.5" y="471.9766"/><text fill="#000000" font-family="sans-serif" font-size="14" lengthAdjust="spacingAndGlyphs" textLength="43" x="136.5" y="491.9717">server</text><rect fill="#FEFECE" filter="url(#f1924b9rkhxscr)" height="30.2969" style="stroke: #A80036; stroke-width: 1.5;" width="60" x="226" y="37.9531"/><text fill="#000000" font-family="sans-serif" font-size="14" lengthAdjust="spacingAndGlyphs" textLength="46" x="233" y="57.9482">factory</text><rect fill="#FEFECE" filter="url(#f1924b9rkhxscr)" height="30.2969" style="stroke: #A80036; stroke-width: 1.5;" width="60" x="226" y="471.9766"/><text fill="#000000" font-family="sans-serif" font-size="14" lengthAdjust="spacingAndGlyphs" textLength="46" x="233" y="491.9717">factory</text><rect fill="#FEFECE" filter="url(#f1924b9rkhxscr)" height="30.2969" style="stroke: #A80036; stroke-width: 1.5;" width="66" x="339" y="37.9531"/><text fill="#000000" font-family="sans-serif" font-size="14" lengthAdjust="spacingAndGlyphs" textLength="52" x="346" y="57.9482">handler</text><rect fill="#FEFECE" filter="url(#f1924b9rkhxscr)" height="30.2969" style="stroke: #A80036; stroke-width: 1.5;" width="66" x="339" y="471.9766"/><text fill="#000000" font-family="sans-serif" font-size="14" lengthAdjust="spacingAndGlyphs" textLength="52" x="346" y="491.9717">handler</text><rect fill="#FFFFFF" filter="url(#f1924b9rkhxscr)" height="248.0625" style="stroke: #A80036; stroke-width: 1.0;" width="10" x="369" y="206.9141"/><polygon fill="#A80036" points="42,100.3828,32,104.3828,42,108.3828,38,104.3828" style="stroke: #A80036; stroke-width: 1.0;"/><line style="stroke: #A80036; stroke-width: 1.0;" x1="36" x2="159" y1="104.3828" y2="104.3828"/><text fill="#000000" font-family="sans-serif" font-size="13" lengthAdjust="spacingAndGlyphs" textLength="62" x="48" y="99.3169">recv(wait)</text><polygon fill="#A80036" points="148,129.5156,158,133.5156,148,137.5156,152,133.5156" style="stroke: #A80036; stroke-width: 1.0;"/><line style="stroke: #A80036; stroke-width: 1.0;" x1="31" x2="154" y1="133.5156" y2="133.5156"/><text fill="#000000" font-family="sans-serif" font-size="13" lengthAdjust="spacingAndGlyphs" textLength="48" x="38" y="128.4497">cid,BOT</text><polygon fill="#A80036" points="246,158.6484,256,162.6484,246,166.6484,250,162.6484" style="stroke: #A80036; stroke-width: 1.0;"/><line style="stroke: #A80036; stroke-width: 1.0;" x1="160" x2="252" y1="162.6484" y2="162.6484"/><text fill="#000000" font-family="sans-serif" font-size="13" lengthAdjust="spacingAndGlyphs" textLength="74" x="167" y="157.5825">BOT' (w/cid)</text><polygon fill="#A80036" points="357,202.9141,367,206.9141,357,210.9141,361,206.9141" style="stroke: #A80036; stroke-width: 1.0;"/><line style="stroke: #A80036; stroke-width: 1.0;" x1="258" x2="363" y1="206.9141" y2="206.9141"/><text fill="#000000" font-family="sans-serif" font-size="13" lengthAdjust="spacingAndGlyphs" textLength="92" x="265" y="186.7153">spawn handler</text><text fill="#000000" font-family="sans-serif" font-size="13" lengthAdjust="spacingAndGlyphs" textLength="29" x="265" y="201.8481">BOT'</text><polygon fill="#A80036" points="171,232.0469,161,236.0469,171,240.0469,167,236.0469" style="stroke: #A80036; stroke-width: 1.0;"/><line style="stroke: #A80036; stroke-width: 1.0;" x1="165" x2="368" y1="236.0469" y2="236.0469"/><text fill="#000000" font-family="sans-serif" font-size="13" lengthAdjust="spacingAndGlyphs" textLength="29" x="177" y="230.981">BOT'</text><polygon fill="#A80036" points="357,261.1797,367,265.1797,357,269.1797,361,265.1797" style="stroke: #A80036; stroke-width: 1.0;"/><line style="stroke: #A80036; stroke-width: 1.0;" x1="160" x2="363" y1="265.1797" y2="265.1797"/><text fill="#000000" font-family="sans-serif" font-size="13" lengthAdjust="spacingAndGlyphs" textLength="26" x="167" y="260.1138">BOT</text><polygon fill="#A80036" points="148,290.3125,158,294.3125,148,298.3125,152,294.3125" style="stroke: #A80036; stroke-width: 1.0;"/><line style="stroke: #A80036; stroke-width: 1.0;" x1="31" x2="154" y1="294.3125" y2="294.3125"/><text fill="#000000" font-family="sans-serif" font-size="13" lengthAdjust="spacingAndGlyphs" textLength="105" x="38" y="289.2466">cid,PAY/DAT/EOT</text><path d="M119.5,309.3125 L275.5,309.3125 L275.5,316.3125 L265.5,326.3125 L119.5,326.3125 L119.5,309.3125 " fill="#EEEEEE" style="stroke: #000000; stroke-width: 1.0;"/><rect fill="none" height="117.5313" style="stroke: #000000; stroke-width: 2.0;" width="299.5" x="119.5" y="309.3125"/><text fill="#000000" font-family="sans-serif" font-size="13" font-weight="bold" lengthAdjust="spacingAndGlyphs" textLength="111" x="134.5" y="322.3794">Flow Sequence</text><polygon fill="#A80036" points="357,343.5781,367,347.5781,357,351.5781,361,347.5781" style="stroke: #A80036; stroke-width: 1.0;"/><line style="stroke: #A80036; stroke-width: 1.0;" x1="160" x2="363" y1="347.5781" y2="347.5781"/><text fill="#000000" font-family="sans-serif" font-size="13" lengthAdjust="spacingAndGlyphs" textLength="83" x="167" y="342.5122">PAY/DAT/EOT</text><line style="stroke: #A80036; stroke-width: 1.0;" x1="379" x2="421" y1="376.7109" y2="376.7109"/><line style="stroke: #A80036; stroke-width: 1.0;" x1="421" x2="421" y1="376.7109" y2="389.7109"/><line style="stroke: #A80036; stroke-width: 1.0;" x1="380" x2="421" y1="389.7109" y2="389.7109"/><polygon fill="#A80036" points="390,385.7109,380,389.7109,390,393.7109,386,389.7109" style="stroke: #A80036; stroke-width: 1.0;"/><text fill="#000000" font-family="sans-serif" font-size="13" lengthAdjust="spacingAndGlyphs" textLength="14" x="386" y="371.645">cc</text><path d="M264,362.0781 L264,387.0781 L360,387.0781 L360,372.0781 L350,362.0781 L264,362.0781 " fill="#FBFB77" filter="url(#f1924b9rkhxscr)" style="stroke: #A80036; stroke-width: 1.0;"/><path d="M350,362.0781 L350,372.0781 L360,372.0781 L350,362.0781 " fill="#FBFB77" style="stroke: #A80036; stroke-width: 1.0;"/><text fill="#000000" font-family="sans-serif" font-size="13" lengthAdjust="spacingAndGlyphs" textLength="75" x="270" y="379.145">service port</text><polygon fill="#A80036" points="171,414.8438,161,418.8438,171,422.8438,167,418.8438" style="stroke: #A80036; stroke-width: 1.0;"/><line style="stroke: #A80036; stroke-width: 1.0;" x1="165" x2="368" y1="418.8438" y2="418.8438"/><text fill="#000000" font-family="sans-serif" font-size="13" lengthAdjust="spacingAndGlyphs" textLength="83" x="177" y="413.7778">DAT/PAY/EOT</text><polygon fill="#A80036" points="42,450.9766,32,454.9766,42,458.9766,38,454.9766" style="stroke: #A80036; stroke-width: 1.0;"/><line style="stroke: #A80036; stroke-width: 1.0;" x1="36" x2="159" y1="454.9766" y2="454.9766"/><text fill="#000000" font-family="sans-serif" font-size="13" lengthAdjust="spacingAndGlyphs" textLength="83" x="48" y="449.9106">DAT/PAY/EOT</text><!--MD5=[f979f3c8eec01ad6b6150814c8d7e221]
@startuml
title ZIO Flow Server Sequence
participant "port" as port
participant "server" as sc
participant "factory" as factory
participant "handler" as app

sc -> port : recv(wait)
port -> sc : cid,BOT
sc -> factory : BOT' (w/cid)
factory -> app : spawn handler\nBOT'
activate app
        app -> sc : BOT' 
        sc -> app : BOT

        port -> sc : cid,PAY/DAT/EOT
        group Flow Sequence
                sc -> app : PAY/DAT/EOT
                app -> app : cc
                note left
                        service port
                end note
                app -> sc : DAT/PAY/EOT
        end
        sc -> port : DAT/PAY/EOT
deactivate app
@enduml

PlantUML version 1.2020.01(Sun Feb 16 12:40:32 EST 2020)
(GPL source distribution)
Java Runtime: OpenJDK Runtime Environment
JVM: OpenJDK 64-Bit Server VM
Java Version: 1.8.0_242-8u242-b08-0ubuntu3~18.04-b08
Operating System: Linux
Default Encoding: UTF-8
Language: en
Country: US
--></g></svg>