<?xml version="1.0" encoding="UTF-8" standalone="no"?>
<!DOCTYPE svg PUBLIC "-//W3C//DTD SVG 1.1//EN"
 "http://www.w3.org/Graphics/SVG/1.1/DTD/svg11.dtd">
<!-- Generated by graphviz version 2.43.0 (0)
 -->
<!-- Title: rpcsockets Pages: 1 -->
<svg width="238pt" height="178pt"
 viewBox="0.00 0.00 238.00 178.00" xmlns="http://www.w3.org/2000/svg" xmlns:xlink="http://www.w3.org/1999/xlink">
<g id="graph0" class="graph" transform="scale(1 1) rotate(0) translate(4 174)">
<title>rpcsockets</title>
<polygon fill="white" stroke="transparent" points="-4,4 -4,-174 234,-174 234,4 -4,4"/>
<text text-anchor="middle" x="115" y="-7.8" font-family="Times,serif" font-size="14.00">ZIO ROAM: restaurant model.</text>
<!-- call0 -->
<g id="node1" class="node">
<title>call0</title>
<path fill="none" stroke="black" d="M27,-133.5C27,-133.5 81,-133.5 81,-133.5 87,-133.5 93,-139.5 93,-145.5 93,-145.5 93,-157.5 93,-157.5 93,-163.5 87,-169.5 81,-169.5 81,-169.5 27,-169.5 27,-169.5 21,-169.5 15,-163.5 15,-157.5 15,-157.5 15,-145.5 15,-145.5 15,-139.5 21,-133.5 27,-133.5"/>
<text text-anchor="middle" x="42" y="-147.8" font-family="Times,serif" font-size="14.00">diner</text>
<polyline fill="none" stroke="black" points="69,-133.5 69,-169.5 "/>
<text text-anchor="middle" x="81" y="-147.8" font-family="Times,serif" font-size="14.00">c</text>
</g>
<!-- oper0 -->
<g id="node4" class="node">
<title>oper0</title>
<path fill="none" stroke="black" d="M141,-105.5C141,-105.5 203,-105.5 203,-105.5 209,-105.5 215,-111.5 215,-117.5 215,-117.5 215,-129.5 215,-129.5 215,-135.5 209,-141.5 203,-141.5 203,-141.5 141,-141.5 141,-141.5 135,-141.5 129,-135.5 129,-129.5 129,-129.5 129,-117.5 129,-117.5 129,-111.5 135,-105.5 141,-105.5"/>
<text text-anchor="middle" x="141" y="-119.8" font-family="Times,serif" font-size="14.00">s</text>
<polyline fill="none" stroke="black" points="153,-105.5 153,-141.5 "/>
<text text-anchor="middle" x="184" y="-119.8" font-family="Times,serif" font-size="14.00">waiter</text>
</g>
<!-- call0&#45;&gt;oper0 -->
<g id="edge1" class="edge">
<title>call0:e&#45;&gt;oper0:w</title>
<path fill="none" stroke="black" d="M102.7,-148.5C109.86,-143.2 111.98,-132.2 118.99,-126.73"/>
<polygon fill="none" stroke="black" points="101.52,-145.2 93,-151.5 103.59,-151.89 101.52,-145.2"/>
<polygon fill="black" stroke="black" points="120.56,-129.9 129,-123.5 118.41,-123.24 120.56,-129.9"/>
</g>
<!-- oper1 -->
<g id="node5" class="node">
<title>oper1</title>
<path fill="none" stroke="black" d="M141,-50.5C141,-50.5 203,-50.5 203,-50.5 209,-50.5 215,-56.5 215,-62.5 215,-62.5 215,-74.5 215,-74.5 215,-80.5 209,-86.5 203,-86.5 203,-86.5 141,-86.5 141,-86.5 135,-86.5 129,-80.5 129,-74.5 129,-74.5 129,-62.5 129,-62.5 129,-56.5 135,-50.5 141,-50.5"/>
<text text-anchor="middle" x="141" y="-64.8" font-family="Times,serif" font-size="14.00">s</text>
<polyline fill="none" stroke="black" points="153,-50.5 153,-86.5 "/>
<text text-anchor="middle" x="184" y="-64.8" font-family="Times,serif" font-size="14.00">waiter</text>
</g>
<!-- call0&#45;&gt;oper1 -->
<g id="edge4" class="edge">
<title>call0:e&#45;&gt;oper1:w</title>
<path fill="none" stroke="black" d="M102.81,-149.11C122.54,-137.04 99.47,-82.99 119.17,-70.9"/>
<polygon fill="none" stroke="black" points="101.88,-145.73 93,-151.5 103.54,-152.53 101.88,-145.73"/>
<polygon fill="black" stroke="black" points="120.12,-74.28 129,-68.5 118.45,-67.48 120.12,-74.28"/>
</g>
<!-- call1 -->
<g id="node2" class="node">
<title>call1</title>
<path fill="none" stroke="black" d="M27,-78.5C27,-78.5 81,-78.5 81,-78.5 87,-78.5 93,-84.5 93,-90.5 93,-90.5 93,-102.5 93,-102.5 93,-108.5 87,-114.5 81,-114.5 81,-114.5 27,-114.5 27,-114.5 21,-114.5 15,-108.5 15,-102.5 15,-102.5 15,-90.5 15,-90.5 15,-84.5 21,-78.5 27,-78.5"/>
<text text-anchor="middle" x="42" y="-92.8" font-family="Times,serif" font-size="14.00">diner</text>
<polyline fill="none" stroke="black" points="69,-78.5 69,-114.5 "/>
<text text-anchor="middle" x="81" y="-92.8" font-family="Times,serif" font-size="14.00">c</text>
</g>
<!-- call1&#45;&gt;oper0 -->
<g id="edge2" class="edge">
<title>call1:e&#45;&gt;oper0:w</title>
<path fill="none" stroke="black" d="M102.62,-99.39C109.78,-104.5 112.05,-115.11 119.07,-120.38"/>
<polygon fill="none" stroke="black" points="103.58,-96.02 93,-96.5 101.57,-102.73 103.58,-96.02"/>
<polygon fill="black" stroke="black" points="118.41,-123.84 129,-123.5 120.51,-117.17 118.41,-123.84"/>
</g>
<!-- call1&#45;&gt;oper1 -->
<g id="edge5" class="edge">
<title>call1:e&#45;&gt;oper1:w</title>
<path fill="none" stroke="black" d="M102.7,-93.5C109.86,-88.2 111.98,-77.2 118.99,-71.73"/>
<polygon fill="none" stroke="black" points="101.52,-90.2 93,-96.5 103.59,-96.89 101.52,-90.2"/>
<polygon fill="black" stroke="black" points="120.56,-74.9 129,-68.5 118.41,-68.24 120.56,-74.9"/>
</g>
<!-- call2 -->
<g id="node3" class="node">
<title>call2</title>
<path fill="none" stroke="black" d="M27,-23.5C27,-23.5 81,-23.5 81,-23.5 87,-23.5 93,-29.5 93,-35.5 93,-35.5 93,-47.5 93,-47.5 93,-53.5 87,-59.5 81,-59.5 81,-59.5 27,-59.5 27,-59.5 21,-59.5 15,-53.5 15,-47.5 15,-47.5 15,-35.5 15,-35.5 15,-29.5 21,-23.5 27,-23.5"/>
<text text-anchor="middle" x="42" y="-37.8" font-family="Times,serif" font-size="14.00">diner</text>
<polyline fill="none" stroke="black" points="69,-23.5 69,-59.5 "/>
<text text-anchor="middle" x="81" y="-37.8" font-family="Times,serif" font-size="14.00">c</text>
</g>
<!-- call2&#45;&gt;oper0 -->
<g id="edge3" class="edge">
<title>call2:e&#45;&gt;oper0:w</title>
<path fill="none" stroke="black" d="M102.72,-43.87C122.3,-55.79 99.7,-109.18 119.26,-121.12"/>
<polygon fill="none" stroke="black" points="103.54,-40.46 93,-41.5 101.89,-47.27 103.54,-40.46"/>
<polygon fill="black" stroke="black" points="118.46,-124.53 129,-123.5 120.11,-117.73 118.46,-124.53"/>
</g>
<!-- call2&#45;&gt;oper1 -->
<g id="edge6" class="edge">
<title>call2:e&#45;&gt;oper1:w</title>
<path fill="none" stroke="black" d="M102.62,-44.39C109.78,-49.5 112.05,-60.11 119.07,-65.38"/>
<polygon fill="none" stroke="black" points="103.58,-41.02 93,-41.5 101.57,-47.73 103.58,-41.02"/>
<polygon fill="black" stroke="black" points="118.41,-68.84 129,-68.5 120.51,-62.17 118.41,-68.84"/>
</g>
</g>
</svg>
