<?xml version="1.0" encoding="UTF-8" standalone="no"?>
<!DOCTYPE svg PUBLIC "-//W3C//DTD SVG 1.1//EN"
 "http://www.w3.org/Graphics/SVG/1.1/DTD/svg11.dtd">
<!-- Generated by graphviz version 2.43.0 (0)
 -->
<!-- Title: rpcsockets Pages: 1 -->
<svg width="261pt" height="273pt"
 viewBox="0.00 0.00 261.00 273.00" xmlns="http://www.w3.org/2000/svg" xmlns:xlink="http://www.w3.org/1999/xlink">
<g id="graph0" class="graph" transform="scale(1 1) rotate(0) translate(4 269)">
<title>rpcsockets</title>
<polygon fill="white" stroke="transparent" points="-4,4 -4,-269 257,-269 257,4 -4,4"/>
<text text-anchor="middle" x="126.5" y="-7.8" font-family="Times,serif" font-size="14.00">ZIO ROAM: Seeger model.</text>
<!-- call0 -->
<g id="node1" class="node">
<title>call0</title>
<path fill="none" stroke="black" d="M12,-88.5C12,-88.5 99,-88.5 99,-88.5 105,-88.5 111,-94.5 111,-100.5 111,-100.5 111,-122.5 111,-122.5 111,-128.5 105,-134.5 99,-134.5 99,-134.5 12,-134.5 12,-134.5 6,-134.5 0,-128.5 0,-122.5 0,-122.5 0,-100.5 0,-100.5 0,-94.5 6,-88.5 12,-88.5"/>
<text text-anchor="middle" x="30" y="-107.8" font-family="Times,serif" font-size="14.00">crowd</text>
<polyline fill="none" stroke="black" points="60,-88.5 60,-134.5 "/>
<text text-anchor="middle" x="85.5" y="-119.3" font-family="Times,serif" font-size="14.00">sub</text>
<polyline fill="none" stroke="black" points="60,-111.5 111,-111.5 "/>
<text text-anchor="middle" x="85.5" y="-96.3" font-family="Times,serif" font-size="14.00">push</text>
</g>
<!-- oper0 -->
<g id="node5" class="node">
<title>oper0</title>
<path fill="none" stroke="black" d="M159,-120.5C159,-120.5 241,-120.5 241,-120.5 247,-120.5 253,-126.5 253,-132.5 253,-132.5 253,-154.5 253,-154.5 253,-160.5 247,-166.5 241,-166.5 241,-166.5 159,-166.5 159,-166.5 153,-166.5 147,-160.5 147,-154.5 147,-154.5 147,-132.5 147,-132.5 147,-126.5 153,-120.5 159,-120.5"/>
<text text-anchor="middle" x="169" y="-151.3" font-family="Times,serif" font-size="14.00">pub</text>
<polyline fill="none" stroke="black" points="147,-143.5 191,-143.5 "/>
<text text-anchor="middle" x="169" y="-128.3" font-family="Times,serif" font-size="14.00">pull</text>
<polyline fill="none" stroke="black" points="191,-120.5 191,-166.5 "/>
<text text-anchor="middle" x="222" y="-139.8" font-family="Times,serif" font-size="14.00">singer</text>
</g>
<!-- call0&#45;&gt;oper0 -->
<g id="edge1" class="edge">
<title>call0:p&#45;&gt;oper0:l</title>
<path fill="none" stroke="black" d="M111,-99.5C128.23,-99.5 127.18,-120.22 137.27,-128.31"/>
<polygon fill="black" stroke="black" points="136.41,-131.72 147,-131.5 138.58,-125.06 136.41,-131.72"/>
</g>
<!-- call0&#45;&gt;oper0 -->
<g id="edge5" class="edge">
<title>call0:s&#45;&gt;oper0:b</title>
<path fill="none" stroke="black" d="M120.73,-126.69C130.82,-134.78 129.77,-155.5 147,-155.5"/>
<polygon fill="none" stroke="black" points="121.59,-123.28 111,-123.5 119.42,-129.94 121.59,-123.28"/>
</g>
<!-- call1 -->
<g id="node2" class="node">
<title>call1</title>
<path fill="none" stroke="black" d="M12,-23.5C12,-23.5 99,-23.5 99,-23.5 105,-23.5 111,-29.5 111,-35.5 111,-35.5 111,-57.5 111,-57.5 111,-63.5 105,-69.5 99,-69.5 99,-69.5 12,-69.5 12,-69.5 6,-69.5 0,-63.5 0,-57.5 0,-57.5 0,-35.5 0,-35.5 0,-29.5 6,-23.5 12,-23.5"/>
<text text-anchor="middle" x="30" y="-42.8" font-family="Times,serif" font-size="14.00">crowd</text>
<polyline fill="none" stroke="black" points="60,-23.5 60,-69.5 "/>
<text text-anchor="middle" x="85.5" y="-54.3" font-family="Times,serif" font-size="14.00">sub</text>
<polyline fill="none" stroke="black" points="60,-46.5 111,-46.5 "/>
<text text-anchor="middle" x="85.5" y="-31.3" font-family="Times,serif" font-size="14.00">push</text>
</g>
<!-- call1&#45;&gt;oper0 -->
<g id="edge2" class="edge">
<title>call1:p&#45;&gt;oper0:l</title>
<path fill="none" stroke="black" d="M111,-34.5C152.85,-34.5 110.25,-114.85 136.93,-129.29"/>
<polygon fill="black" stroke="black" points="136.48,-132.78 147,-131.5 137.98,-125.94 136.48,-132.78"/>
</g>
<!-- call1&#45;&gt;oper0 -->
<g id="edge6" class="edge">
<title>call1:s&#45;&gt;oper0:b</title>
<path fill="none" stroke="black" d="M121.07,-60.71C147.75,-75.15 105.15,-155.5 147,-155.5"/>
<polygon fill="none" stroke="black" points="121.52,-57.22 111,-58.5 120.02,-64.06 121.52,-57.22"/>
</g>
<!-- call2 -->
<g id="node3" class="node">
<title>call2</title>
<path fill="none" stroke="black" d="M12,-218.5C12,-218.5 99,-218.5 99,-218.5 105,-218.5 111,-224.5 111,-230.5 111,-230.5 111,-252.5 111,-252.5 111,-258.5 105,-264.5 99,-264.5 99,-264.5 12,-264.5 12,-264.5 6,-264.5 0,-258.5 0,-252.5 0,-252.5 0,-230.5 0,-230.5 0,-224.5 6,-218.5 12,-218.5"/>
<text text-anchor="middle" x="30" y="-237.8" font-family="Times,serif" font-size="14.00">crowd</text>
<polyline fill="none" stroke="black" points="60,-218.5 60,-264.5 "/>
<text text-anchor="middle" x="85.5" y="-249.3" font-family="Times,serif" font-size="14.00">sub</text>
<polyline fill="none" stroke="black" points="60,-241.5 111,-241.5 "/>
<text text-anchor="middle" x="85.5" y="-226.3" font-family="Times,serif" font-size="14.00">push</text>
</g>
<!-- call2&#45;&gt;oper0 -->
<g id="edge3" class="edge">
<title>call2:p&#45;&gt;oper0:l</title>
<path fill="none" stroke="black" d="M111,-229.5C153.41,-229.5 109.6,-147.62 137.19,-133.55"/>
<polygon fill="black" stroke="black" points="137.93,-136.97 147,-131.5 136.5,-130.12 137.93,-136.97"/>
</g>
<!-- call2&#45;&gt;oper0 -->
<g id="edge7" class="edge">
<title>call2:s&#45;&gt;oper0:b</title>
<path fill="none" stroke="black" d="M120.81,-251.45C148.4,-237.38 104.59,-155.5 147,-155.5"/>
<polygon fill="none" stroke="black" points="120.07,-248.03 111,-253.5 121.5,-254.88 120.07,-248.03"/>
</g>
<!-- call3 -->
<g id="node4" class="node">
<title>call3</title>
<path fill="none" stroke="black" d="M12,-153.5C12,-153.5 99,-153.5 99,-153.5 105,-153.5 111,-159.5 111,-165.5 111,-165.5 111,-187.5 111,-187.5 111,-193.5 105,-199.5 99,-199.5 99,-199.5 12,-199.5 12,-199.5 6,-199.5 0,-193.5 0,-187.5 0,-187.5 0,-165.5 0,-165.5 0,-159.5 6,-153.5 12,-153.5"/>
<text text-anchor="middle" x="30" y="-172.8" font-family="Times,serif" font-size="14.00">crowd</text>
<polyline fill="none" stroke="black" points="60,-153.5 60,-199.5 "/>
<text text-anchor="middle" x="85.5" y="-184.3" font-family="Times,serif" font-size="14.00">sub</text>
<polyline fill="none" stroke="black" points="60,-176.5 111,-176.5 "/>
<text text-anchor="middle" x="85.5" y="-161.3" font-family="Times,serif" font-size="14.00">push</text>
</g>
<!-- call3&#45;&gt;oper0 -->
<g id="edge4" class="edge">
<title>call3:p&#45;&gt;oper0:l</title>
<path fill="none" stroke="black" d="M111,-164.5C128.47,-164.5 127.08,-143.13 137.18,-134.78"/>
<polygon fill="black" stroke="black" points="138.63,-137.99 147,-131.5 136.41,-131.35 138.63,-137.99"/>
</g>
<!-- call3&#45;&gt;oper0 -->
<g id="edge8" class="edge">
<title>call3:s&#45;&gt;oper0:b</title>
<path fill="none" stroke="black" d="M120.82,-185.22C130.92,-176.87 129.53,-155.5 147,-155.5"/>
<polygon fill="none" stroke="black" points="119.37,-182.01 111,-188.5 121.59,-188.65 119.37,-182.01"/>
</g>
</g>
</svg>
