<?xml version="1.0" encoding="UTF-8" standalone="no"?>
<!DOCTYPE svg PUBLIC "-//W3C//DTD SVG 1.1//EN"
 "http://www.w3.org/Graphics/SVG/1.1/DTD/svg11.dtd">
<!-- Generated by graphviz version 2.43.0 (0)
 -->
<!-- Title: rpcsockets Pages: 1 -->
<svg width="235pt" height="243pt"
 viewBox="0.00 0.00 235.00 243.00" xmlns="http://www.w3.org/2000/svg" xmlns:xlink="http://www.w3.org/1999/xlink">
<g id="graph0" class="graph" transform="scale(1 1) rotate(0) translate(4 239)">
<title>rpcsockets</title>
<polygon fill="white" stroke="transparent" points="-4,4 -4,-239 231,-239 231,4 -4,4"/>
<text text-anchor="middle" x="113.5" y="-7.8" font-family="Times,serif" font-size="14.00">ZIO ROAM: classroom model.</text>
<!-- call0 -->
<g id="node1" class="node">
<title>call0</title>
<path fill="none" stroke="black" d="M12.5,-198.5C12.5,-198.5 83.5,-198.5 83.5,-198.5 89.5,-198.5 95.5,-204.5 95.5,-210.5 95.5,-210.5 95.5,-222.5 95.5,-222.5 95.5,-228.5 89.5,-234.5 83.5,-234.5 83.5,-234.5 12.5,-234.5 12.5,-234.5 6.5,-234.5 0.5,-228.5 0.5,-222.5 0.5,-222.5 0.5,-210.5 0.5,-210.5 0.5,-204.5 6.5,-198.5 12.5,-198.5"/>
<text text-anchor="middle" x="36" y="-212.8" font-family="Times,serif" font-size="14.00">student</text>
<polyline fill="none" stroke="black" points="71.5,-198.5 71.5,-234.5 "/>
<text text-anchor="middle" x="83.5" y="-212.8" font-family="Times,serif" font-size="14.00">c</text>
</g>
<!-- oper0 -->
<g id="node5" class="node">
<title>oper0</title>
<path fill="none" stroke="black" d="M143.5,-143.5C143.5,-143.5 214.5,-143.5 214.5,-143.5 220.5,-143.5 226.5,-149.5 226.5,-155.5 226.5,-155.5 226.5,-167.5 226.5,-167.5 226.5,-173.5 220.5,-179.5 214.5,-179.5 214.5,-179.5 143.5,-179.5 143.5,-179.5 137.5,-179.5 131.5,-173.5 131.5,-167.5 131.5,-167.5 131.5,-155.5 131.5,-155.5 131.5,-149.5 137.5,-143.5 143.5,-143.5"/>
<text text-anchor="middle" x="143.5" y="-157.8" font-family="Times,serif" font-size="14.00">s</text>
<polyline fill="none" stroke="black" points="155.5,-143.5 155.5,-179.5 "/>
<text text-anchor="middle" x="191" y="-157.8" font-family="Times,serif" font-size="14.00">teacher</text>
</g>
<!-- call0&#45;&gt;oper0 -->
<g id="edge1" class="edge">
<title>call0:c&#45;&gt;oper0:s</title>
<path fill="none" stroke="black" d="M105.43,-213.22C116.83,-203.42 110.17,-174.38 121.67,-164.69"/>
<polygon fill="none" stroke="black" points="103.9,-210.04 95.5,-216.5 106.09,-216.69 103.9,-210.04"/>
<polygon fill="black" stroke="black" points="123.07,-167.91 131.5,-161.5 120.91,-161.26 123.07,-167.91"/>
</g>
<!-- call1 -->
<g id="node2" class="node">
<title>call1</title>
<path fill="none" stroke="black" d="M12.5,-143.5C12.5,-143.5 83.5,-143.5 83.5,-143.5 89.5,-143.5 95.5,-149.5 95.5,-155.5 95.5,-155.5 95.5,-167.5 95.5,-167.5 95.5,-173.5 89.5,-179.5 83.5,-179.5 83.5,-179.5 12.5,-179.5 12.5,-179.5 6.5,-179.5 0.5,-173.5 0.5,-167.5 0.5,-167.5 0.5,-155.5 0.5,-155.5 0.5,-149.5 6.5,-143.5 12.5,-143.5"/>
<text text-anchor="middle" x="36" y="-157.8" font-family="Times,serif" font-size="14.00">student</text>
<polyline fill="none" stroke="black" points="71.5,-143.5 71.5,-179.5 "/>
<text text-anchor="middle" x="83.5" y="-157.8" font-family="Times,serif" font-size="14.00">c</text>
</g>
<!-- call1&#45;&gt;oper0 -->
<g id="edge2" class="edge">
<title>call1:c&#45;&gt;oper0:s</title>
<path fill="none" stroke="black" d="M105.62,-161.5C111.29,-161.5 115.49,-161.5 121.11,-161.5"/>
<polygon fill="none" stroke="black" points="105.5,-158 95.5,-161.5 105.5,-165 105.5,-158"/>
<polygon fill="black" stroke="black" points="121.5,-165 131.5,-161.5 121.5,-158 121.5,-165"/>
</g>
<!-- call2 -->
<g id="node3" class="node">
<title>call2</title>
<path fill="none" stroke="black" d="M12.5,-78.5C12.5,-78.5 83.5,-78.5 83.5,-78.5 89.5,-78.5 95.5,-84.5 95.5,-90.5 95.5,-90.5 95.5,-112.5 95.5,-112.5 95.5,-118.5 89.5,-124.5 83.5,-124.5 83.5,-124.5 12.5,-124.5 12.5,-124.5 6.5,-124.5 0.5,-118.5 0.5,-112.5 0.5,-112.5 0.5,-90.5 0.5,-90.5 0.5,-84.5 6.5,-78.5 12.5,-78.5"/>
<text text-anchor="middle" x="36" y="-97.8" font-family="Times,serif" font-size="14.00">student</text>
<polyline fill="none" stroke="black" points="71.5,-78.5 71.5,-124.5 "/>
<text text-anchor="middle" x="83.5" y="-109.3" font-family="Times,serif" font-size="14.00">c</text>
<polyline fill="none" stroke="black" points="71.5,-101.5 95.5,-101.5 "/>
<text text-anchor="middle" x="83.5" y="-86.3" font-family="Times,serif" font-size="14.00">c</text>
</g>
<!-- call2&#45;&gt;oper0 -->
<g id="edge3" class="edge">
<title>call2:c&#45;&gt;oper0:s</title>
<path fill="none" stroke="black" d="M105.11,-116.65C115.44,-125.33 111.55,-149.51 121.8,-158.28"/>
<polygon fill="none" stroke="black" points="106.09,-113.29 95.5,-113.5 103.91,-119.94 106.09,-113.29"/>
<polygon fill="black" stroke="black" points="120.91,-161.67 131.5,-161.5 123.11,-155.02 120.91,-161.67"/>
</g>
<!-- oper1 -->
<g id="node6" class="node">
<title>oper1</title>
<path fill="none" stroke="black" d="M143.5,-47.5C143.5,-47.5 214.5,-47.5 214.5,-47.5 220.5,-47.5 226.5,-53.5 226.5,-59.5 226.5,-59.5 226.5,-71.5 226.5,-71.5 226.5,-77.5 220.5,-83.5 214.5,-83.5 214.5,-83.5 143.5,-83.5 143.5,-83.5 137.5,-83.5 131.5,-77.5 131.5,-71.5 131.5,-71.5 131.5,-59.5 131.5,-59.5 131.5,-53.5 137.5,-47.5 143.5,-47.5"/>
<text text-anchor="middle" x="143.5" y="-61.8" font-family="Times,serif" font-size="14.00">s</text>
<polyline fill="none" stroke="black" points="155.5,-47.5 155.5,-83.5 "/>
<text text-anchor="middle" x="191" y="-61.8" font-family="Times,serif" font-size="14.00">teacher</text>
</g>
<!-- call2&#45;&gt;oper1 -->
<g id="edge4" class="edge">
<title>call2:c2&#45;&gt;oper1:s</title>
<path fill="none" stroke="black" d="M105.18,-86.75C112.14,-82.12 114.89,-72.83 121.87,-68.22"/>
<polygon fill="none" stroke="black" points="104.16,-83.4 95.5,-89.5 106.08,-90.13 104.16,-83.4"/>
<polygon fill="black" stroke="black" points="122.83,-71.59 131.5,-65.5 120.93,-64.85 122.83,-71.59"/>
</g>
<!-- call3 -->
<g id="node4" class="node">
<title>call3</title>
<path fill="none" stroke="black" d="M12.5,-23.5C12.5,-23.5 83.5,-23.5 83.5,-23.5 89.5,-23.5 95.5,-29.5 95.5,-35.5 95.5,-35.5 95.5,-47.5 95.5,-47.5 95.5,-53.5 89.5,-59.5 83.5,-59.5 83.5,-59.5 12.5,-59.5 12.5,-59.5 6.5,-59.5 0.5,-53.5 0.5,-47.5 0.5,-47.5 0.5,-35.5 0.5,-35.5 0.5,-29.5 6.5,-23.5 12.5,-23.5"/>
<text text-anchor="middle" x="36" y="-37.8" font-family="Times,serif" font-size="14.00">student</text>
<polyline fill="none" stroke="black" points="71.5,-23.5 71.5,-59.5 "/>
<text text-anchor="middle" x="83.5" y="-37.8" font-family="Times,serif" font-size="14.00">c</text>
</g>
<!-- call3&#45;&gt;oper1 -->
<g id="edge5" class="edge">
<title>call3:c&#45;&gt;oper1:s</title>
<path fill="none" stroke="black" d="M105.18,-44.25C112.14,-48.88 114.89,-58.17 121.87,-62.78"/>
<polygon fill="none" stroke="black" points="106.08,-40.87 95.5,-41.5 104.16,-47.6 106.08,-40.87"/>
<polygon fill="black" stroke="black" points="120.93,-66.15 131.5,-65.5 122.83,-59.41 120.93,-66.15"/>
</g>
</g>
</svg>
