<?xml version="1.0" encoding="UTF-8" standalone="no"?>
<!DOCTYPE svg PUBLIC "-//W3C//DTD SVG 1.1//EN"
 "http://www.w3.org/Graphics/SVG/1.1/DTD/svg11.dtd">
<!-- Generated by graphviz version 2.43.0 (0)
 -->
<!-- Title: rpcsockets Pages: 1 -->
<svg width="239pt" height="178pt"
 viewBox="0.00 0.00 239.00 178.00" xmlns="http://www.w3.org/2000/svg" xmlns:xlink="http://www.w3.org/1999/xlink">
<g id="graph0" class="graph" transform="scale(1 1) rotate(0) translate(4 174)">
<title>rpcsockets</title>
<polygon fill="white" stroke="transparent" points="-4,4 -4,-174 235,-174 235,4 -4,4"/>
<text text-anchor="middle" x="115.5" y="-7.8" font-family="Times,serif" font-size="14.00">ZIO ROME: restaurant model.</text>
<!-- call0 -->
<g id="node1" class="node">
<title>call0</title>
<path fill="none" stroke="black" d="M27.5,-133.5C27.5,-133.5 81.5,-133.5 81.5,-133.5 87.5,-133.5 93.5,-139.5 93.5,-145.5 93.5,-145.5 93.5,-157.5 93.5,-157.5 93.5,-163.5 87.5,-169.5 81.5,-169.5 81.5,-169.5 27.5,-169.5 27.5,-169.5 21.5,-169.5 15.5,-163.5 15.5,-157.5 15.5,-157.5 15.5,-145.5 15.5,-145.5 15.5,-139.5 21.5,-133.5 27.5,-133.5"/>
<text text-anchor="middle" x="42.5" y="-147.8" font-family="Times,serif" font-size="14.00">diner</text>
<polyline fill="none" stroke="black" points="69.5,-133.5 69.5,-169.5 "/>
<text text-anchor="middle" x="81.5" y="-147.8" font-family="Times,serif" font-size="14.00">c</text>
</g>
<!-- oper0 -->
<g id="node4" class="node">
<title>oper0</title>
<path fill="none" stroke="black" d="M141.5,-105.5C141.5,-105.5 203.5,-105.5 203.5,-105.5 209.5,-105.5 215.5,-111.5 215.5,-117.5 215.5,-117.5 215.5,-129.5 215.5,-129.5 215.5,-135.5 209.5,-141.5 203.5,-141.5 203.5,-141.5 141.5,-141.5 141.5,-141.5 135.5,-141.5 129.5,-135.5 129.5,-129.5 129.5,-129.5 129.5,-117.5 129.5,-117.5 129.5,-111.5 135.5,-105.5 141.5,-105.5"/>
<text text-anchor="middle" x="141.5" y="-119.8" font-family="Times,serif" font-size="14.00">s</text>
<polyline fill="none" stroke="black" points="153.5,-105.5 153.5,-141.5 "/>
<text text-anchor="middle" x="184.5" y="-119.8" font-family="Times,serif" font-size="14.00">waiter</text>
</g>
<!-- call0&#45;&gt;oper0 -->
<g id="edge1" class="edge">
<title>call0:e&#45;&gt;oper0:w</title>
<path fill="none" stroke="black" d="M103.2,-148.5C110.36,-143.2 112.48,-132.2 119.49,-126.73"/>
<polygon fill="none" stroke="black" points="102.02,-145.2 93.5,-151.5 104.09,-151.89 102.02,-145.2"/>
<polygon fill="black" stroke="black" points="121.06,-129.9 129.5,-123.5 118.91,-123.24 121.06,-129.9"/>
</g>
<!-- oper1 -->
<g id="node5" class="node">
<title>oper1</title>
<path fill="none" stroke="black" d="M141.5,-50.5C141.5,-50.5 203.5,-50.5 203.5,-50.5 209.5,-50.5 215.5,-56.5 215.5,-62.5 215.5,-62.5 215.5,-74.5 215.5,-74.5 215.5,-80.5 209.5,-86.5 203.5,-86.5 203.5,-86.5 141.5,-86.5 141.5,-86.5 135.5,-86.5 129.5,-80.5 129.5,-74.5 129.5,-74.5 129.5,-62.5 129.5,-62.5 129.5,-56.5 135.5,-50.5 141.5,-50.5"/>
<text text-anchor="middle" x="141.5" y="-64.8" font-family="Times,serif" font-size="14.00">s</text>
<polyline fill="none" stroke="black" points="153.5,-50.5 153.5,-86.5 "/>
<text text-anchor="middle" x="184.5" y="-64.8" font-family="Times,serif" font-size="14.00">waiter</text>
</g>
<!-- call0&#45;&gt;oper1 -->
<g id="edge4" class="edge">
<title>call0:e&#45;&gt;oper1:w</title>
<path fill="none" stroke="black" d="M103.31,-149.11C123.04,-137.04 99.97,-82.99 119.67,-70.9"/>
<polygon fill="none" stroke="black" points="102.38,-145.73 93.5,-151.5 104.04,-152.53 102.38,-145.73"/>
<polygon fill="black" stroke="black" points="120.62,-74.28 129.5,-68.5 118.95,-67.48 120.62,-74.28"/>
</g>
<!-- call1 -->
<g id="node2" class="node">
<title>call1</title>
<path fill="none" stroke="black" d="M27.5,-78.5C27.5,-78.5 81.5,-78.5 81.5,-78.5 87.5,-78.5 93.5,-84.5 93.5,-90.5 93.5,-90.5 93.5,-102.5 93.5,-102.5 93.5,-108.5 87.5,-114.5 81.5,-114.5 81.5,-114.5 27.5,-114.5 27.5,-114.5 21.5,-114.5 15.5,-108.5 15.5,-102.5 15.5,-102.5 15.5,-90.5 15.5,-90.5 15.5,-84.5 21.5,-78.5 27.5,-78.5"/>
<text text-anchor="middle" x="42.5" y="-92.8" font-family="Times,serif" font-size="14.00">diner</text>
<polyline fill="none" stroke="black" points="69.5,-78.5 69.5,-114.5 "/>
<text text-anchor="middle" x="81.5" y="-92.8" font-family="Times,serif" font-size="14.00">c</text>
</g>
<!-- call1&#45;&gt;oper0 -->
<g id="edge2" class="edge">
<title>call1:e&#45;&gt;oper0:w</title>
<path fill="none" stroke="black" d="M103.12,-99.39C110.28,-104.5 112.55,-115.11 119.57,-120.38"/>
<polygon fill="none" stroke="black" points="104.08,-96.02 93.5,-96.5 102.07,-102.73 104.08,-96.02"/>
<polygon fill="black" stroke="black" points="118.91,-123.84 129.5,-123.5 121.01,-117.17 118.91,-123.84"/>
</g>
<!-- call1&#45;&gt;oper1 -->
<g id="edge5" class="edge">
<title>call1:e&#45;&gt;oper1:w</title>
<path fill="none" stroke="black" d="M103.2,-93.5C110.36,-88.2 112.48,-77.2 119.49,-71.73"/>
<polygon fill="none" stroke="black" points="102.02,-90.2 93.5,-96.5 104.09,-96.89 102.02,-90.2"/>
<polygon fill="black" stroke="black" points="121.06,-74.9 129.5,-68.5 118.91,-68.24 121.06,-74.9"/>
</g>
<!-- call2 -->
<g id="node3" class="node">
<title>call2</title>
<path fill="none" stroke="black" d="M27.5,-23.5C27.5,-23.5 81.5,-23.5 81.5,-23.5 87.5,-23.5 93.5,-29.5 93.5,-35.5 93.5,-35.5 93.5,-47.5 93.5,-47.5 93.5,-53.5 87.5,-59.5 81.5,-59.5 81.5,-59.5 27.5,-59.5 27.5,-59.5 21.5,-59.5 15.5,-53.5 15.5,-47.5 15.5,-47.5 15.5,-35.5 15.5,-35.5 15.5,-29.5 21.5,-23.5 27.5,-23.5"/>
<text text-anchor="middle" x="42.5" y="-37.8" font-family="Times,serif" font-size="14.00">diner</text>
<polyline fill="none" stroke="black" points="69.5,-23.5 69.5,-59.5 "/>
<text text-anchor="middle" x="81.5" y="-37.8" font-family="Times,serif" font-size="14.00">c</text>
</g>
<!-- call2&#45;&gt;oper0 -->
<g id="edge3" class="edge">
<title>call2:e&#45;&gt;oper0:w</title>
<path fill="none" stroke="black" d="M103.22,-43.87C122.8,-55.79 100.2,-109.18 119.76,-121.12"/>
<polygon fill="none" stroke="black" points="104.04,-40.46 93.5,-41.5 102.39,-47.27 104.04,-40.46"/>
<polygon fill="black" stroke="black" points="118.96,-124.53 129.5,-123.5 120.61,-117.73 118.96,-124.53"/>
</g>
<!-- call2&#45;&gt;oper1 -->
<g id="edge6" class="edge">
<title>call2:e&#45;&gt;oper1:w</title>
<path fill="none" stroke="black" d="M103.12,-44.39C110.28,-49.5 112.55,-60.11 119.57,-65.38"/>
<polygon fill="none" stroke="black" points="104.08,-41.02 93.5,-41.5 102.07,-47.73 104.08,-41.02"/>
<polygon fill="black" stroke="black" points="118.91,-68.84 129.5,-68.5 121.01,-62.17 118.91,-68.84"/>
</g>
</g>
</svg>
