<?xml version="1.0" encoding="UTF-8" standalone="no"?><svg xmlns="http://www.w3.org/2000/svg" xmlns:xlink="http://www.w3.org/1999/xlink" contentScriptType="application/ecmascript" contentStyleType="text/css" height="901px" preserveAspectRatio="none" style="width:772px;height:901px;" version="1.1" viewBox="0 0 772 901" width="772px" zoomAndPan="magnify"><defs><filter height="300%" id="f84afk3xcg3cl" width="300%" x="-1" y="-1"><feGaussianBlur result="blurOut" stdDeviation="2.0"/><feColorMatrix in="blurOut" result="blurOut2" type="matrix" values="0 0 0 0 0 0 0 0 0 0 0 0 0 0 0 0 0 0 .4 0"/><feOffset dx="4.0" dy="4.0" in="blurOut2" result="blurOut3"/><feBlend in="SourceGraphic" in2="blurOut3" mode="normal"/></filter></defs><g><!--MD5=[81d10e2aa0a99a6c77363ad8c1f1d509]
cluster ZIO--><polygon fill="#FFFFFF" filter="url(#f84afk3xcg3cl)" points="203,16,236,16,243,38.2969,700,38.2969,700,404,203,404,203,16" style="stroke: #000000; stroke-width: 1.5;"/><line style="stroke: #000000; stroke-width: 1.5;" x1="203" x2="243" y1="38.2969" y2="38.2969"/><text fill="#000000" font-family="sans-serif" font-size="14" font-weight="bold" lengthAdjust="spacingAndGlyphs" textLength="27" x="207" y="30.9951">ZIO</text><!--MD5=[2d9118cb54b04d888b1ca727e5bf622d]
cluster ZIO C++--><polygon fill="#FFFFFF" filter="url(#f84afk3xcg3cl)" points="211,59.5,284,59.5,291,81.7969,453,81.7969,453,396,211,396,211,59.5" style="stroke: #000000; stroke-width: 1.5;"/><line style="stroke: #000000; stroke-width: 1.5;" x1="211" x2="291" y1="81.7969" y2="81.7969"/><text fill="#000000" font-family="sans-serif" font-size="14" font-weight="bold" lengthAdjust="spacingAndGlyphs" textLength="67" x="215" y="74.4951">ZIO C++</text><!--MD5=[f05e27109c39e5300b7de77ec406cfb6]
cluster ZIO Python--><polygon fill="#FFFFFF" filter="url(#f84afk3xcg3cl)" points="472,43,565,43,572,65.2969,692,65.2969,692,396,472,396,472,43" style="stroke: #000000; stroke-width: 1.5;"/><line style="stroke: #000000; stroke-width: 1.5;" x1="472" x2="572" y1="65.2969" y2="65.2969"/><text fill="#000000" font-family="sans-serif" font-size="14" font-weight="bold" lengthAdjust="spacingAndGlyphs" textLength="87" x="476" y="57.9951">ZIO Python</text><!--MD5=[1f1ee6432202a34bf899b44239622b75]
cluster ZeroMQ--><polygon fill="#FFFFFF" filter="url(#f84afk3xcg3cl)" points="14,421,83,421,90,443.2969,750,443.2969,750,889,14,889,14,421" style="stroke: #000000; stroke-width: 1.5;"/><line style="stroke: #000000; stroke-width: 1.5;" x1="14" x2="90" y1="443.2969" y2="443.2969"/><text fill="#000000" font-family="sans-serif" font-size="14" font-weight="bold" lengthAdjust="spacingAndGlyphs" textLength="63" x="18" y="435.9951">ZeroMQ</text><!--MD5=[9978e771f181572e74a22964388b3d1d]
entity cpphigh--><polygon fill="#FEFECE" filter="url(#f84afk3xcg3cl)" points="230,86.5,299,86.5,306,108.7969,434,108.7969,434,190.9844,230,190.9844,230,86.5" style="stroke: #000000; stroke-width: 1.5;"/><line style="stroke: #000000; stroke-width: 1.5;" x1="230" x2="306" y1="108.7969" y2="108.7969"/><text fill="#000000" font-family="sans-serif" font-size="14" font-weight="bold" lengthAdjust="spacingAndGlyphs" textLength="63" x="234" y="102.4951">cpphigh</text><text fill="#000000" font-family="sans-serif" font-size="14" font-weight="bold" lengthAdjust="spacingAndGlyphs" textLength="140" x="240" y="128.792">domo task broker</text><text fill="#000000" font-family="sans-serif" font-size="14" font-weight="bold" lengthAdjust="spacingAndGlyphs" textLength="174" x="240" y="145.0889">domo task worker API</text><text fill="#000000" font-family="sans-serif" font-size="14" font-weight="bold" lengthAdjust="spacingAndGlyphs" textLength="160" x="240" y="161.3857">domo task client API</text><text fill="#000000" font-family="sans-serif" font-size="14" font-weight="bold" lengthAdjust="spacingAndGlyphs" textLength="88" x="240" y="177.6826">flow object</text><!--MD5=[abce5e8fba17086cf0a97bddd9d24ca6]
entity cppbase--><polygon fill="#FEFECE" filter="url(#f84afk3xcg3cl)" points="219.5,267,292.5,267,299.5,289.2969,444.5,289.2969,444.5,387.7813,219.5,387.7813,219.5,267" style="stroke: #000000; stroke-width: 1.5;"/><line style="stroke: #000000; stroke-width: 1.5;" x1="219.5" x2="299.5" y1="289.2969" y2="289.2969"/><text fill="#000000" font-family="sans-serif" font-size="14" font-weight="bold" lengthAdjust="spacingAndGlyphs" textLength="67" x="223.5" y="282.9951">cppbase</text><text fill="#000000" font-family="sans-serif" font-size="14" font-weight="bold" lengthAdjust="spacingAndGlyphs" textLength="113" x="229.5" y="309.292">message form</text><text fill="#000000" font-family="sans-serif" font-size="14" font-weight="bold" lengthAdjust="spacingAndGlyphs" textLength="195" x="229.5" y="325.5889">tensor message support</text><text fill="#000000" font-family="sans-serif" font-size="14" font-weight="bold" lengthAdjust="spacingAndGlyphs" textLength="120" x="229.5" y="341.8857">node/port/peer</text><text fill="#000000" font-family="sans-serif" font-size="14" font-weight="bold" lengthAdjust="spacingAndGlyphs" textLength="153" x="229.5" y="358.1826">iface to CZMQ Zyre</text><text fill="#000000" font-family="sans-serif" font-size="14" font-weight="bold" lengthAdjust="spacingAndGlyphs" textLength="175" x="229.5" y="374.4795">typeless send()/recv()</text><!--MD5=[ea166df492119f0c457ee54ade52906f]
entity pyhigh--><polygon fill="#FEFECE" filter="url(#f84afk3xcg3cl)" points="480,70,539,70,546,92.2969,684,92.2969,684,207.0781,480,207.0781,480,70" style="stroke: #000000; stroke-width: 1.5;"/><line style="stroke: #000000; stroke-width: 1.5;" x1="480" x2="546" y1="92.2969" y2="92.2969"/><text fill="#000000" font-family="sans-serif" font-size="14" font-weight="bold" lengthAdjust="spacingAndGlyphs" textLength="53" x="484" y="85.9951">pyhigh</text><text fill="#000000" font-family="sans-serif" font-size="14" font-weight="bold" lengthAdjust="spacingAndGlyphs" textLength="140" x="490" y="112.292">domo task broker</text><text fill="#000000" font-family="sans-serif" font-size="14" font-weight="bold" lengthAdjust="spacingAndGlyphs" textLength="174" x="490" y="128.5889">domo task worker API</text><text fill="#000000" font-family="sans-serif" font-size="14" font-weight="bold" lengthAdjust="spacingAndGlyphs" textLength="160" x="490" y="144.8857">domo task client API</text><text fill="#000000" font-family="sans-serif" font-size="14" font-weight="bold" lengthAdjust="spacingAndGlyphs" textLength="88" x="490" y="161.1826">flow object</text><text fill="#000000" font-family="sans-serif" font-size="14" font-weight="bold" lengthAdjust="spacingAndGlyphs" textLength="92" x="490" y="177.4795">flow broker</text><text fill="#000000" font-family="sans-serif" font-size="14" font-weight="bold" lengthAdjust="spacingAndGlyphs" textLength="166" x="490" y="193.7764">flow handlers (HDF5)</text><!--MD5=[a39c037807862d32b8cbcffc8cc7954e]
entity pybase--><polygon fill="#FEFECE" filter="url(#f84afk3xcg3cl)" points="479.5,267,542.5,267,549.5,289.2969,684.5,289.2969,684.5,387.7813,479.5,387.7813,479.5,267" style="stroke: #000000; stroke-width: 1.5;"/><line style="stroke: #000000; stroke-width: 1.5;" x1="479.5" x2="549.5" y1="289.2969" y2="289.2969"/><text fill="#000000" font-family="sans-serif" font-size="14" font-weight="bold" lengthAdjust="spacingAndGlyphs" textLength="57" x="483.5" y="282.9951">pybase</text><text fill="#000000" font-family="sans-serif" font-size="14" font-weight="bold" lengthAdjust="spacingAndGlyphs" textLength="113" x="489.5" y="309.292">message form</text><text fill="#000000" font-family="sans-serif" font-size="14" font-weight="bold" lengthAdjust="spacingAndGlyphs" textLength="120" x="489.5" y="325.5889">node/port/peer</text><text fill="#000000" font-family="sans-serif" font-size="14" font-weight="bold" lengthAdjust="spacingAndGlyphs" textLength="100" x="489.5" y="341.8857">iface to Pyre</text><text fill="#000000" font-family="sans-serif" font-size="14" font-weight="bold" lengthAdjust="spacingAndGlyphs" textLength="175" x="489.5" y="358.1826">typeless send()/recv()</text><text fill="#000000" font-family="sans-serif" font-size="14" font-weight="bold" lengthAdjust="spacingAndGlyphs" textLength="101" x="489.5" y="374.4795">sp/mp codec</text><!--MD5=[c5768f8acb55271338b44f1daab41beb]
entity cppzmq--><polygon fill="#FEFECE" filter="url(#f84afk3xcg3cl)" points="22,596,90,596,97,618.2969,274,618.2969,274,724.7813,22,724.7813,22,596" style="stroke: #000000; stroke-width: 1.5;"/><line style="stroke: #000000; stroke-width: 1.5;" x1="22" x2="97" y1="618.2969" y2="618.2969"/><text fill="#000000" font-family="sans-serif" font-size="14" font-weight="bold" lengthAdjust="spacingAndGlyphs" textLength="62" x="26" y="611.9951">cppzmq</text><text fill="#000000" font-family="sans-serif" font-size="14" font-weight="bold" lengthAdjust="spacingAndGlyphs" textLength="204" x="32" y="638.292">Modern C++, header only</text><line style="stroke: #000000; stroke-width: 1.0;" x1="23" x2="273" y1="641.5938" y2="641.5938"/><text fill="#000000" font-family="sans-serif" font-size="14" font-weight="bold" lengthAdjust="spacingAndGlyphs" textLength="160" x="38" y="658.5889">single/multipart msg</text><text fill="#000000" font-family="sans-serif" font-size="14" font-weight="bold" lengthAdjust="spacingAndGlyphs" textLength="103" x="38" y="674.8857">socket poller</text><text fill="#000000" font-family="sans-serif" font-size="14" font-weight="bold" lengthAdjust="spacingAndGlyphs" textLength="210" x="38" y="691.1826">sp/mp codec, Actor (in PR)</text><text fill="#000000" font-family="sans-serif" font-size="14" font-weight="bold" lengthAdjust="spacingAndGlyphs" textLength="117" x="38" y="707.4795">(no Zyre iface)</text><!--MD5=[3ee1fd5286069ccd105c532c3359756e]
entity pyzmq--><polygon fill="#FEFECE" filter="url(#f84afk3xcg3cl)" points="540,604.5,598,604.5,605,626.7969,742,626.7969,742,716.9844,540,716.9844,540,604.5" style="stroke: #000000; stroke-width: 1.5;"/><line style="stroke: #000000; stroke-width: 1.5;" x1="540" x2="605" y1="626.7969" y2="626.7969"/><text fill="#000000" font-family="sans-serif" font-size="14" font-weight="bold" lengthAdjust="spacingAndGlyphs" textLength="52" x="544" y="620.4951">pyzmq</text><text fill="#000000" font-family="sans-serif" font-size="14" font-weight="bold" lengthAdjust="spacingAndGlyphs" textLength="55" x="550" y="646.792">Python</text><line style="stroke: #000000; stroke-width: 1.0;" x1="541" x2="741" y1="650.0938" y2="650.0938"/><text fill="#000000" font-family="sans-serif" font-size="14" font-weight="bold" lengthAdjust="spacingAndGlyphs" textLength="160" x="556" y="667.0889">single/multipart msg</text><text fill="#000000" font-family="sans-serif" font-size="14" font-weight="bold" lengthAdjust="spacingAndGlyphs" textLength="103" x="556" y="683.3857">socket poller</text><text fill="#000000" font-family="sans-serif" font-size="14" font-weight="bold" lengthAdjust="spacingAndGlyphs" textLength="138" x="556" y="699.6826">(no sp/mp codec)</text><!--MD5=[d0c56ba10e1f5497bb457f01a46be07d]
entity Pyre--><polygon fill="#FEFECE" filter="url(#f84afk3xcg3cl)" points="482.5,464,524.5,464,531.5,486.2969,637.5,486.2969,637.5,519.5938,482.5,519.5938,482.5,464" style="stroke: #000000; stroke-width: 1.5;"/><line style="stroke: #000000; stroke-width: 1.5;" x1="482.5" x2="531.5" y1="486.2969" y2="486.2969"/><text fill="#000000" font-family="sans-serif" font-size="14" font-weight="bold" lengthAdjust="spacingAndGlyphs" textLength="36" x="486.5" y="479.9951">Pyre</text><text fill="#000000" font-family="sans-serif" font-size="14" font-weight="bold" lengthAdjust="spacingAndGlyphs" textLength="125" x="492.5" y="506.292">Zyre for Python</text><!--MD5=[e1100487504a4762ea81a2f0dd3991bf]
entity libzmq--><polygon fill="#FEFECE" filter="url(#f84afk3xcg3cl)" points="223,785,280,785,287,807.2969,541,807.2969,541,881.1875,223,881.1875,223,785" style="stroke: #000000; stroke-width: 1.5;"/><line style="stroke: #000000; stroke-width: 1.5;" x1="223" x2="287" y1="807.2969" y2="807.2969"/><text fill="#000000" font-family="sans-serif" font-size="14" font-weight="bold" lengthAdjust="spacingAndGlyphs" textLength="51" x="227" y="800.9951">libzmq</text><text fill="#000000" font-family="sans-serif" font-size="14" font-weight="bold" lengthAdjust="spacingAndGlyphs" textLength="159" x="233" y="827.292">core ZeroMQ library</text><line style="stroke: #000000; stroke-width: 1.0;" x1="224" x2="540" y1="830.5938" y2="830.5938"/><text fill="#000000" font-family="sans-serif" font-size="14" font-weight="bold" lengthAdjust="spacingAndGlyphs" textLength="276" x="239" y="847.5889">sockets (including those in "draft")</text><text fill="#000000" font-family="sans-serif" font-size="14" font-weight="bold" lengthAdjust="spacingAndGlyphs" textLength="160" x="239" y="863.8857">single/multipart msg</text><!--MD5=[214c13c9c9973c6eadb80b443addb26d]
entity CZMQ--><polygon fill="#FEFECE" filter="url(#f84afk3xcg3cl)" points="309,612.5,362,612.5,369,634.7969,505,634.7969,505,708.6875,309,708.6875,309,612.5" style="stroke: #000000; stroke-width: 1.5;"/><line style="stroke: #000000; stroke-width: 1.5;" x1="309" x2="369" y1="634.7969" y2="634.7969"/><text fill="#000000" font-family="sans-serif" font-size="14" font-weight="bold" lengthAdjust="spacingAndGlyphs" textLength="47" x="313" y="628.4951">CZMQ</text><text fill="#000000" font-family="sans-serif" font-size="14" font-weight="bold" lengthAdjust="spacingAndGlyphs" textLength="166" x="319" y="654.792">High-level C bindings</text><line style="stroke: #000000; stroke-width: 1.0;" x1="310" x2="504" y1="658.0938" y2="658.0938"/><text fill="#000000" font-family="sans-serif" font-size="14" font-weight="bold" lengthAdjust="spacingAndGlyphs" textLength="86" x="325" y="675.0889">sp/mp msg</text><text fill="#000000" font-family="sans-serif" font-size="14" font-weight="bold" lengthAdjust="spacingAndGlyphs" textLength="125" x="325" y="691.3857">poller and actor</text><!--MD5=[b01174b55b791080b91c7558a3cee1cd]
entity Zyre--><polygon fill="#FEFECE" filter="url(#f84afk3xcg3cl)" points="265,448,308,448,315,470.2969,443,470.2969,443,536.1875,265,536.1875,265,448" style="stroke: #000000; stroke-width: 1.5;"/><line style="stroke: #000000; stroke-width: 1.5;" x1="265" x2="315" y1="470.2969" y2="470.2969"/><text fill="#000000" font-family="sans-serif" font-size="14" font-weight="bold" lengthAdjust="spacingAndGlyphs" textLength="37" x="269" y="463.9951">Zyre</text><text fill="#000000" font-family="sans-serif" font-size="14" font-weight="bold" lengthAdjust="spacingAndGlyphs" textLength="86" x="275" y="490.292">distributed</text><text fill="#000000" font-family="sans-serif" font-size="14" font-weight="bold" lengthAdjust="spacingAndGlyphs" textLength="148" x="275" y="506.5889">network discovery</text><text fill="#000000" font-family="sans-serif" font-size="14" font-weight="bold" lengthAdjust="spacingAndGlyphs" textLength="109" x="275" y="522.8857">and presence</text><!--MD5=[4f06e8372521fe8f81b119f2413a45c7]
link cpphigh to cppbase--><path d="M332,190.6454 C332,207.9773 332,227.7059 332,246.6824 " fill="none" id="cpphigh-&gt;cppbase" style="stroke: #A80036; stroke-width: 1.0;"/><polygon fill="none" points="339.0001,246.8299,332,266.8298,325.0001,246.8298,339.0001,246.8299" style="stroke: #A80036; stroke-width: 1.0;"/><!--MD5=[532c127e67c4154c8f4f970f739a1a10]
link pyhigh to pybase--><path d="M582,207.0006 C582,219.8261 582,233.3445 582,246.5061 " fill="none" id="pyhigh-&gt;pybase" style="stroke: #A80036; stroke-width: 1.0;"/><polygon fill="none" points="589.0001,246.7439,582,266.7439,575.0001,246.7438,589.0001,246.7439" style="stroke: #A80036; stroke-width: 1.0;"/><!--MD5=[37a79499321ed603292a5de21e84dfbb]
link Zyre to CZMQ--><path d="M367.9251,536.2714 C373.3882,553.6398 379.7795,573.9593 385.7919,593.0742 " fill="none" id="Zyre-&gt;CZMQ" style="stroke: #A80036; stroke-width: 1.0;"/><polygon fill="none" points="392.542,591.205,391.8655,612.3838,379.187,595.4057,392.542,591.205" style="stroke: #A80036; stroke-width: 1.0;"/><!--MD5=[115ba6dfc06730916b96b1f6a8aed4bb]
link cppbase to Zyre--><path d="M340.1295,388.2864 C341.8645,401.2598 343.702,414.9992 345.4522,428.0861 " fill="none" id="cppbase-&gt;Zyre" style="stroke: #A80036; stroke-width: 1.0;"/><polygon fill="none" points="352.3905,427.1588,348.1035,447.9103,338.514,429.0147,352.3905,427.1588" style="stroke: #A80036; stroke-width: 1.0;"/><!--MD5=[6d15178970946b580ea7707fe4bc26ef]
link cppbase to cppzmq--><path d="M271.429,388.1884 C262.5992,398.6557 254.105,409.7896 247,421 C216.2522,469.5143 191.5517,529.2012 174.5135,576.8531 " fill="none" id="cppbase-&gt;cppzmq" style="stroke: #A80036; stroke-width: 1.0;"/><polygon fill="none" points="181.1018,579.2195,167.9116,595.8032,167.8811,574.6136,181.1018,579.2195" style="stroke: #A80036; stroke-width: 1.0;"/><!--MD5=[c1102db31ca2a6074d6078dfd5791992]
link pybase to pyzmq--><path d="M638.306,388.243 C645.1389,398.5402 651.0796,409.6081 655,421 C673.0856,473.5529 668.5136,536.3905 659.9905,584.5131 " fill="none" id="pybase-&gt;pyzmq" style="stroke: #A80036; stroke-width: 1.0;"/><polygon fill="none" points="666.8564,585.8771,656.1503,604.1632,653.1163,583.1919,666.8564,585.8771" style="stroke: #A80036; stroke-width: 1.0;"/><!--MD5=[2781eefd1319a06d63511c6d8db4791d]
link pybase to Pyre--><path d="M573.8705,388.2864 C571.43,406.5345 568.7869,426.2982 566.469,443.6298 " fill="none" id="pybase-&gt;Pyre" style="stroke: #A80036; stroke-width: 1.0;"/><polygon fill="none" points="573.3822,444.7454,563.7927,463.641,559.5057,442.8895,573.3822,444.7454" style="stroke: #A80036; stroke-width: 1.0;"/><!--MD5=[f1d87417b727a2f805a6481a8dcc9610]
link cppzmq to libzmq--><path d="M235.7987,725.2234 C256.9809,740.8384 279.5272,757.4591 300.4115,772.8547 " fill="none" id="cppzmq-&gt;libzmq" style="stroke: #A80036; stroke-width: 1.0;"/><polygon fill="none" points="304.8014,767.3943,316.7463,784.8963,296.4941,778.6632,304.8014,767.3943" style="stroke: #A80036; stroke-width: 1.0;"/><!--MD5=[7060aa251273672c8f50eb50151cd215]
link Pyre to pyzmq--><path d="M573.5576,520.2031 C582.2285,538.2408 593.9149,562.5514 605.1228,585.8666 " fill="none" id="Pyre-&gt;pyzmq" style="stroke: #A80036; stroke-width: 1.0;"/><polygon fill="none" points="611.5858,583.1544,613.942,604.2126,598.9679,589.2199,611.5858,583.1544" style="stroke: #A80036; stroke-width: 1.0;"/><!--MD5=[d57f467a6461668f62795bbc8c6f9d5d]
link pyzmq to libzmq--><path d="M556.9101,716.5058 C529.5103,734.7547 499.0052,755.0718 471.2415,773.5631 " fill="none" id="pyzmq-&gt;libzmq" style="stroke: #A80036; stroke-width: 1.0;"/><polygon fill="none" points="474.8874,779.5453,454.3611,784.8058,467.1268,767.8931,474.8874,779.5453" style="stroke: #A80036; stroke-width: 1.0;"/><!--MD5=[d118a5c7dd2616e155189996d362db4d]
@startuml

folder ZIO {

folder "ZIO C++" {
        package cpphigh [
                domo task broker
                domo task worker API
                domo task client API                
                flow object
                ]
        package cppbase [
                message form
                tensor message support
                node/port/peer
                iface to CZMQ Zyre
                typeless send()/recv()
                ]
        cpphigh - -|> cppbase
}

folder "ZIO Python" {
        package pyhigh [
                domo task broker
                domo task worker API
                domo task client API                
                flow object
                flow broker
                flow handlers (HDF5)
        ]
        package pybase [
                message form
                node/port/peer
                iface to Pyre
                typeless send()/recv()
                sp/mp codec
        ]
        pyhigh - -|> pybase
}

}

folder ZeroMQ {
        package cppzmq [
        Modern C++, header only
        - - - -
        single/multipart msg
        socket poller
        sp/mp codec, Actor (in PR)
        (no Zyre iface)
        ]
        package pyzmq [
        Python
        - - - -
        single/multipart msg
        socket poller
        (no sp/mp codec)
        ]
        package Pyre [
        Zyre for Python
        ]
        package libzmq [
        core ZeroMQ library
        - - - -
        sockets (including those in "draft")
        single/multipart msg
        ]
        package CZMQ [
        High-level C bindings
        - - - -
        sp/mp msg
        poller and actor
        ]
        package Zyre [
        distributed
        network discovery
        and presence
        ]
        Zyre - -|> CZMQ
}
cppbase - -|> Zyre
cppbase - -|> cppzmq
pybase - -|> pyzmq
pybase - -|> Pyre

cppzmq - -|> libzmq
Pyre - -|> pyzmq
pyzmq - -|> libzmq

@enduml

PlantUML version 1.2020.01(Sun Feb 16 12:40:32 EST 2020)
(GPL source distribution)
Java Runtime: OpenJDK Runtime Environment
JVM: OpenJDK 64-Bit Server VM
Java Version: 1.8.0_242-8u242-b08-0ubuntu3~18.04-b08
Operating System: Linux
Default Encoding: UTF-8
Language: en
Country: US
--></g></svg>